<?xml version="1.0" encoding="UTF-8"?>
<svg version="1.1" xmlns="http://www.w3.org/2000/svg" width="1024" height="1024">
<path d="M0 0 C1.18613892 0.00785522 1.18613892 0.00785522 2.39624023 0.01586914 C3.67724609 0.02070313 3.67724609 0.02070313 4.98413086 0.02563477 C5.88196289 0.03401367 6.77979492 0.04239258 7.70483398 0.05102539 C8.6065332 0.05553711 9.50823242 0.06004883 10.43725586 0.06469727 C12.67234712 0.07652315 14.90730835 0.09300319 17.14233398 0.11352539 C21.07183281 8.23630884 23.58738886 16.67856876 26.14233398 25.30102539 C26.57149885 26.73152083 27.00118354 28.16186043 27.43139648 29.59204102 C30.07710934 38.41121 32.6357537 47.25384934 35.14233398 56.11352539 C38.1772908 47.18503238 41.11862706 38.23529497 43.91967773 29.23071289 C44.16313431 28.4494252 44.40659088 27.66813751 44.65742493 26.86317444 C45.8974294 22.88173775 47.13168289 18.89863681 48.35839844 14.91308594 C48.82265004 13.41864361 49.28707939 11.92425649 49.75170898 10.42993164 C49.96298935 9.73684906 50.17426971 9.04376648 50.39195251 8.3296814 C51.36541256 5.21422861 52.31539499 2.85393388 54.14233398 0.11352539 C57.09297546 -0.10733101 59.82601629 -0.1670845 62.76733398 -0.07397461 C63.56913086 -0.06043945 64.37092773 -0.0469043 65.19702148 -0.03295898 C67.17907776 0.00243488 69.1607895 0.05624306 71.14233398 0.11352539 C74.18535806 6.53556168 76.50637728 13.0038441 78.56030273 19.80102539 C78.8630159 20.78474121 79.16572906 21.76845703 79.47761536 22.78198242 C80.43365313 25.89090162 81.38229428 29.00200663 82.32983398 32.11352539 C83.28896366 35.25332461 84.2497145 38.39259961 85.21418762 41.53076172 C85.81181862 43.47619629 86.40622132 45.42262602 86.99711609 47.37011719 C87.39807243 48.67783081 87.39807243 48.67783081 87.80712891 50.01196289 C88.04155197 50.7820166 88.27597504 51.55207031 88.51750183 52.34545898 C88.99987327 54.11476087 88.99987327 54.11476087 90.14233398 55.11352539 C90.45944336 53.96883789 90.77655273 52.82415039 91.10327148 51.64477539 C94.15293041 40.75041745 97.3753813 29.91153024 100.71929932 19.10424805 C101.16803473 17.65195192 101.61460917 16.19898633 102.059021 14.74536133 C102.68981663 12.68506396 103.32893962 10.62753642 103.97045898 8.57055664 C104.34074219 7.37406494 104.71102539 6.17757324 105.0925293 4.94482422 C106.14233398 2.11352539 106.14233398 2.11352539 108.14233398 0.11352539 C110.11352539 -0.11352539 110.11352539 -0.11352539 112.49389648 -0.08178711 C113.34467773 -0.0753418 114.19545898 -0.06889648 115.07202148 -0.06225586 C116.40620117 -0.03711914 116.40620117 -0.03711914 117.76733398 -0.01147461 C119.11311523 0.00206055 119.11311523 0.00206055 120.48608398 0.01586914 C122.70509984 0.03947569 124.92358476 0.07240229 127.14233398 0.11352539 C128.14233398 2.11352539 128.14233398 2.11352539 127.3605957 5.01049805 C126.93536621 6.2536377 126.51013672 7.49677734 126.07202148 8.77758789 C125.83939102 9.46576096 125.60676056 10.15393402 125.36708069 10.86296082 C124.59036795 13.15709132 123.80369567 15.44768625 123.01733398 17.73852539 C121.90829305 21.00424657 120.80464174 24.27178188 119.70092773 27.53930664 C119.41236404 28.39137192 119.12380035 29.24343719 118.82649231 30.12132263 C116.68770495 36.45129652 114.60561071 42.79825336 112.55249023 49.15649414 C112.11471252 50.51164124 112.11471252 50.51164124 111.66809082 51.89416504 C110.52301888 55.44249807 109.3795231 58.99132076 108.2411499 62.54180908 C107.44928905 65.01063496 106.65348635 67.47816247 105.85717773 69.94555664 C105.62636002 70.670186 105.3955423 71.39481537 105.1577301 72.1414032 C103.71893367 76.58882089 102.04305064 80.84223242 100.14233398 85.11352539 C97.20529873 85.36202073 94.26947066 85.58800824 91.32983398 85.80102539 C90.07976562 85.91027344 90.07976562 85.91027344 88.80444336 86.02172852 C88.00200195 86.07651367 87.19956055 86.13129883 86.37280273 86.18774414 C85.63441162 86.24534912 84.89602051 86.3029541 84.13525391 86.36230469 C82.14233398 86.11352539 82.14233398 86.11352539 80.53564453 85.05688477 C78.5296487 82.25896523 77.62384197 79.19888464 76.61889648 75.94555664 C76.27681656 74.87684578 76.27681656 74.87684578 75.92782593 73.7865448 C75.19898691 71.5023568 74.48302772 69.21436193 73.76733398 66.92602539 C73.29421252 65.43682697 72.82026163 63.94789178 72.34545898 62.45922852 C70.44019237 56.47008715 68.55839321 50.47401343 66.71166992 44.46655273 C66.3688649 43.35590706 66.3688649 43.35590706 66.01913452 42.2228241 C65.58388384 40.81085764 65.15133361 39.39805516 64.72183228 37.98432922 C63.91115041 34.78956644 63.91115041 34.78956644 62.14233398 32.11352539 C61.7962207 33.24274414 61.7962207 33.24274414 61.44311523 34.39477539 C58.70568866 43.31034652 55.93590486 52.21540303 53.14233398 61.11352539 C52.75851562 62.3387793 52.37469727 63.5640332 51.97924805 64.82641602 C50.92282107 68.17687837 49.84861408 71.52101314 48.76733398 74.86352539 C48.44635742 75.88575195 48.12538086 76.90797852 47.79467773 77.96118164 C47.48916992 78.89317383 47.18366211 79.82516602 46.86889648 80.78540039 C46.6067334 81.60105469 46.34457031 82.41670898 46.07446289 83.25708008 C45.14233398 85.11352539 45.14233398 85.11352539 42.14233398 86.11352539 C39.83214062 86.23422808 37.51814659 86.28888839 35.20483398 86.30102539 C33.97893555 86.31520508 32.75303711 86.32938477 31.48999023 86.34399414 C28.17435867 86.11573012 26.79892256 85.99753633 24.14233398 84.11352539 C22.80883789 81.35595703 22.80883789 81.35595703 21.61889648 77.77368164 C21.39598434 77.11586197 21.1730722 76.4580423 20.94340515 75.7802887 C20.20337384 73.5834783 19.48526461 71.38014818 18.76733398 69.17602539 C18.25307224 67.63252056 17.73766798 66.08939599 17.22119141 64.54663086 C15.81271226 60.32368488 14.42514599 56.09413066 13.04229736 51.86273193 C12.11022074 49.01542592 11.17264839 46.16997914 10.23364258 43.32495117 C8.30003456 37.46520588 6.37466957 31.6027968 4.45483398 25.73852539 C3.9903183 24.32061203 3.9903183 24.32061203 3.51641846 22.87405396 C2.63436179 20.17634205 1.75667654 17.47725192 0.88061523 14.77758789 C0.61762131 13.97382217 0.35462738 13.17005646 0.08366394 12.3419342 C-2.38470548 4.7021297 -2.38470548 4.7021297 -2.85766602 1.11352539 C-1.85766602 0.11352539 -1.85766602 0.11352539 0 0 Z " fill="#59CC69" transform="translate(643.857666015625,473.886474609375)"/>
<path d="M0 0 C0.87454834 0.00523682 1.74909668 0.01047363 2.65014648 0.01586914 C3.59438477 0.0190918 4.53862305 0.02231445 5.51147461 0.02563477 C6.50469727 0.03401367 7.49791992 0.04239258 8.52124023 0.05102539 C9.51833008 0.05553711 10.51541992 0.06004883 11.54272461 0.06469727 C14.01478872 0.07652532 16.48673541 0.0930069 18.95874023 0.11352539 C24.9350974 10.69461677 30.71713135 21.32512455 36.03979492 32.2512207 C36.70550216 33.60032135 37.38505612 34.94261825 38.07299805 36.28051758 C38.44005859 36.99626953 38.80711914 37.71202148 39.18530273 38.44946289 C39.52384277 39.10221191 39.86238281 39.75496094 40.21118164 40.42749023 C40.95874023 42.11352539 40.95874023 42.11352539 40.95874023 44.11352539 C41.61874023 44.11352539 42.27874023 44.11352539 42.95874023 44.11352539 C43.22589844 43.24945068 43.49305664 42.38537598 43.76831055 41.49511719 C44.94735965 38.14585362 46.36278588 35.15320373 48.00561523 32.00805664 C48.60374023 30.85885742 49.20186523 29.7096582 49.81811523 28.52563477 C50.44830803 27.32575681 51.07851643 26.12588706 51.70874023 24.92602539 C52.62139648 23.17322266 52.62139648 23.17322266 53.55249023 21.38500977 C57.27657819 14.25115324 61.07702138 7.16280568 64.95874023 0.11352539 C68.43788964 0.08464725 71.91700854 0.06676852 75.39624023 0.05102539 C76.88607422 0.03845703 76.88607422 0.03845703 78.40600586 0.02563477 C79.35024414 0.02241211 80.29448242 0.01918945 81.26733398 0.01586914 C82.57915649 0.00801392 82.57915649 0.00801392 83.91748047 0 C85.95874023 0.11352539 85.95874023 0.11352539 86.95874023 1.11352539 C87.05383583 3.7304098 87.08430024 6.32081439 87.07226562 8.93798828 C87.07241165 9.75743423 87.07255768 10.57688019 87.07270813 11.42115784 C87.07200876 14.14285892 87.06421525 16.86449244 87.05639648 19.58618164 C87.05453239 21.4680528 87.05310845 23.34992445 87.05210876 25.23179626 C87.0482829 30.19501068 87.03845204 35.15819603 87.02740479 40.12139893 C87.01719213 45.18192145 87.01261146 50.24244866 87.00756836 55.30297852 C86.99682983 65.23984028 86.97975259 75.17668042 86.95874023 85.11352539 C81.29403469 87.94587816 74.2811446 85.48543153 67.95874023 85.11352539 C67.62874023 68.94352539 67.29874023 52.77352539 66.95874023 36.11352539 C64.31874023 41.39352539 61.67874023 46.67352539 58.95874023 52.11352539 C56.97031325 55.95391868 54.97629068 59.78870441 52.95874023 63.61352539 C52.47018555 64.54293945 51.98163086 65.47235352 51.47827148 66.42993164 C50.30652215 68.65855292 49.13336389 70.88641816 47.95874023 73.11352539 C44.25113938 73.39678861 40.65911473 73.5374158 36.95874023 73.11352539 C35.03295898 71.10180664 35.03295898 71.10180664 33.95874023 68.11352539 C33.31525246 66.88977088 32.65347655 65.67553868 31.97827148 64.46899414 C31.24113926 63.08044273 30.50549753 61.69109919 29.77124023 60.30102539 C29.42254883 59.64682617 29.07385742 58.99262695 28.71459961 58.31860352 C24.65525098 50.64935962 20.84266535 42.88137563 16.95874023 35.11352539 C16.95874023 51.28352539 16.95874023 67.45352539 16.95874023 84.11352539 C12.66434216 86.26072443 10.54835603 86.35515981 5.83374023 86.30102539 C4.59366211 86.29458008 3.35358398 86.28813477 2.07592773 86.28149414 C-1.04125977 86.11352539 -1.04125977 86.11352539 -3.04125977 85.11352539 C-3.06438274 74.17856068 -3.08217462 63.24360173 -3.09307194 52.30861759 C-3.09830087 47.23161521 -3.10539869 42.1546295 -3.11669922 37.07763672 C-3.12752775 32.18231987 -3.13353653 27.2870191 -3.13613701 22.39169121 C-3.13799132 20.51969588 -3.14161205 18.64770148 -3.14698982 16.77571297 C-3.15419981 14.1631184 -3.15525073 11.55059112 -3.15478516 8.93798828 C-3.15838043 8.15612152 -3.16197571 7.37425476 -3.16567993 6.56869507 C-3.15326942 0.1753702 -3.15326942 0.1753702 0 0 Z " fill="#FCFCFB" transform="translate(269.041259765625,473.886474609375)"/>
<path d="M0 0 C38.2176246 -0.63145541 38.2176246 -0.63145541 54 13 C63.87589352 24.56769541 65.81203467 37.31087278 65 52 C64.38432707 55.24586391 63.43743394 58.03259345 62 61 C61.70996094 61.60972656 61.41992188 62.21945312 61.12109375 62.84765625 C55.03880728 74.42690455 46.24300055 80.17523413 34 84 C31.06034509 84.84341389 28.39485896 85.15076161 25.33911133 85.22119141 C24.42168655 85.24436432 23.50426178 85.26753723 22.55903625 85.29141235 C21.5766246 85.3112619 20.59421295 85.33111145 19.58203125 85.3515625 C18.06255135 85.38629166 18.06255135 85.38629166 16.51237488 85.42172241 C14.37491695 85.46928533 12.23740632 85.5145285 10.09985352 85.55761719 C6.81441396 85.62496077 3.52932772 85.70263938 0.24414062 85.78125 C-1.8307158 85.82614303 -3.90558534 85.87043475 -5.98046875 85.9140625 C-7.46319527 85.94990952 -7.46319527 85.94990952 -8.97587585 85.98648071 C-10.33782829 86.0117836 -10.33782829 86.0117836 -11.72729492 86.03759766 C-12.53019455 86.05456696 -13.33309418 86.07153625 -14.1603241 86.08901978 C-16 86 -16 86 -17 85 C-17.09268999 83.64905018 -17.11747326 82.29332909 -17.11352539 80.93920898 C-17.11344986 80.07839218 -17.11337433 79.21757538 -17.11329651 78.33067322 C-17.10813522 77.39526199 -17.10297394 76.45985077 -17.09765625 75.49609375 C-17.0962413 74.54307877 -17.09482635 73.59006378 -17.09336853 72.60816956 C-17.08775152 69.55124835 -17.07519616 66.49439923 -17.0625 63.4375 C-17.05748719 61.37044376 -17.05292391 59.30338638 -17.04882812 57.23632812 C-17.03777656 52.15752412 -17.02050055 47.0787743 -17 42 C-22.61 42 -28.22 42 -34 42 C-34 37.24469845 -32.36050065 35.04005308 -29.765625 31.29296875 C-29.3311908 30.64934891 -28.89675659 30.00572906 -28.44915771 29.34260559 C-27.05804249 27.28491042 -25.65464348 25.23597853 -24.25 23.1875 C-22.86199601 21.14823527 -21.47666172 19.10720938 -20.09368896 17.06452942 C-19.23340098 15.7954969 -18.36987188 14.52865307 -17.50250244 13.26445007 C-14.78771999 9.28038896 -12.34626299 5.21230262 -10 1 C-7.25030959 1.3441759 -6.22341028 1.73214232 -4.41943359 3.89501953 C-3.91750488 4.71599121 -3.41557617 5.53696289 -2.8984375 6.3828125 C-2.33012207 7.29635498 -1.76180664 8.20989746 -1.17626953 9.15112305 C-0.58185059 10.13250244 0.01256836 11.11388184 0.625 12.125 C1.86822621 14.13508365 3.11302696 16.14419429 4.359375 18.15234375 C4.97232422 19.14476074 5.58527344 20.13717773 6.21679688 21.15966797 C9.06705362 25.69963058 12.08358144 30.12510847 15.15478516 34.51806641 C18 38.67775843 18 38.67775843 18 42 C13.38 42 8.76 42 4 42 C3.67 50.58 3.34 59.16 3 68 C6.609375 67.9175 10.21875 67.835 13.9375 67.75 C15.05632568 67.73420898 16.17515137 67.71841797 17.32788086 67.70214844 C25.37789866 67.43175095 31.60477371 65.80475215 37.875 60.625 C43.03040901 54.25655357 44.52955069 48.07564796 44 40 C42.68296987 33.46670095 40.90795131 28.58075455 36 24 C31.57467959 21.30670324 27.07411698 18.86274226 21.8125 19.2109375 C11.99655231 19.63334508 11.99655231 19.63334508 8.20703125 16.53320312 C4.46569199 12.44738158 1.48611341 7.93951481 -1 3 C-0.67 2.01 -0.34 1.02 0 0 Z " fill="#5ACB6A" transform="translate(803,474)"/>
<path d="M0 0 C7.11184295 6.37472295 13.11760003 16.72424113 14.04052734 26.33203125 C14.58929222 40.7529071 12.96289335 52.2501914 2.84765625 63.32421875 C-6.37145069 73.03067936 -18.21598712 77.28379491 -31.40234375 77.69921875 C-44.43510612 77.49214407 -55.80105005 72.4640361 -65.40234375 63.69921875 C-73.78997173 54.81919965 -77.71668202 43.06675905 -77.3984375 30.9921875 C-76.21723414 18.18644315 -70.97975567 8.18720316 -61.70703125 -0.6328125 C-43.47407424 -15.21360228 -18.02190892 -14.031577 0 0 Z M-52.58984375 18.109375 C-56.96013755 24.30426647 -56.74894596 30.97559472 -56.15234375 38.32421875 C-54.79056304 45.73962966 -51.3443515 50.95065061 -45.51171875 55.64453125 C-39.08553917 59.63993855 -31.42812372 59.09009033 -24.15234375 58.32421875 C-17.51044719 56.66374461 -12.8146493 51.96300665 -9.15234375 46.32421875 C-5.48494986 38.13110474 -4.91200928 30.02580553 -8.0546875 21.5625 C-11.22188721 15.10411767 -15.9705787 10.50964383 -22.703125 7.94921875 C-34.72564954 4.8812699 -44.92578342 8.57565479 -52.58984375 18.109375 Z " fill="#57CC69" transform="translate(623.15234375,483.67578125)"/>
<path d="M0 0 C0.90473053 -0.0033284 1.80946106 -0.0066568 2.74160767 -0.01008606 C4.66676321 -0.01516396 6.59192761 -0.01749412 8.51708984 -0.01733398 C11.42951604 -0.01949632 14.3415484 -0.03757486 17.25390625 -0.05664062 C43.98533618 -0.14115585 43.98533618 -0.14115585 54.1015625 8.16796875 C60.45460819 15.28390605 62.38993477 22.17906513 62.0390625 31.54296875 C61.1179851 40.67963303 57.86944988 47.37616958 50.75 53.20703125 C49.1015625 54.16796875 49.1015625 54.16796875 46.1015625 54.16796875 C48.93909831 60.21226189 52.25364027 65.51534859 56.1640625 70.91796875 C56.69322266 71.65917969 57.22238281 72.40039062 57.76757812 73.1640625 C60.68683 77.25603259 60.68683 77.25603259 63.77514648 81.21972656 C65.1015625 83.16796875 65.1015625 83.16796875 65.1015625 86.16796875 C61.68518297 86.28429388 58.26931353 86.35525772 54.8515625 86.41796875 C53.88347656 86.45148438 52.91539062 86.485 51.91796875 86.51953125 C50.51611328 86.53886719 50.51611328 86.53886719 49.0859375 86.55859375 C48.22709961 86.57954102 47.36826172 86.60048828 46.48339844 86.62207031 C42.41908555 85.84720131 40.72870087 83.01536262 38.36230469 79.81787109 C37.79672852 78.9717627 37.23115234 78.1256543 36.6484375 77.25390625 C36.0296875 76.32835937 35.4109375 75.4028125 34.7734375 74.44921875 C34.13921875 73.49015625 33.505 72.53109375 32.8515625 71.54296875 C31.87703125 70.09277344 31.87703125 70.09277344 30.8828125 68.61328125 C30.26921875 67.6903125 29.655625 66.76734375 29.0234375 65.81640625 C28.46237305 64.97255371 27.90130859 64.12870117 27.32324219 63.25927734 C26.1015625 61.16796875 26.1015625 61.16796875 26.1015625 59.16796875 C20.8215625 59.16796875 15.5415625 59.16796875 10.1015625 59.16796875 C10.1015625 67.74796875 10.1015625 76.32796875 10.1015625 85.16796875 C7.27710658 86.10945406 5.95984632 86.2410857 3.08984375 86.046875 C2.33251953 85.99853516 1.57519531 85.95019531 0.79492188 85.90039062 C-0.38360352 85.8162793 -0.38360352 85.8162793 -1.5859375 85.73046875 C-2.38322266 85.67826172 -3.18050781 85.62605469 -4.00195312 85.57226562 C-5.96780272 85.44277853 -7.93317415 85.30606834 -9.8984375 85.16796875 C-9.92156047 74.23300404 -9.93935235 63.29804509 -9.95024967 52.36306095 C-9.9554786 47.28605857 -9.96257642 42.20907286 -9.97387695 37.13208008 C-9.98470549 32.23676323 -9.99071426 27.34146246 -9.99331474 22.44613457 C-9.99516905 20.57413924 -9.99878978 18.70214484 -10.00416756 16.83015633 C-10.01137754 14.21756176 -10.01242846 11.60503448 -10.01196289 8.99243164 C-10.01555817 8.21056488 -10.01915344 7.42869812 -10.02285767 6.62313843 C-10.00730195 -1.39044639 -7.13244079 0.00902944 0 0 Z M10.1015625 18.16796875 C10.01430027 19.94868121 9.99457209 21.73280015 10.00390625 23.515625 C10.00712891 24.59521484 10.01035156 25.67480469 10.01367188 26.78710938 C10.02205078 27.92341797 10.03042969 29.05972656 10.0390625 30.23046875 C10.04357422 31.37064453 10.04808594 32.51082031 10.05273438 33.68554688 C10.06456503 36.51307226 10.0810484 39.34049515 10.1015625 42.16796875 C13.62223601 42.25579417 17.14262394 42.30863518 20.6640625 42.35546875 C22.1500293 42.39317383 22.1500293 42.39317383 23.66601562 42.43164062 C29.60902671 42.49087329 33.89864804 42.14006371 39.1015625 39.16796875 C42.11400742 34.89224048 42.74712441 31.33246404 42.1015625 26.16796875 C39.80675815 21.97401598 37.78819966 18.96587978 33.0234375 17.55078125 C28.7956028 16.99686708 24.61062329 17.02381255 20.3515625 17.04296875 C19.47628906 17.03910156 18.60101563 17.03523438 17.69921875 17.03125 C16.45205078 17.03318359 16.45205078 17.03318359 15.1796875 17.03515625 C14.42075195 17.03628418 13.66181641 17.03741211 12.87988281 17.03857422 C11.07661283 16.97494264 11.07661283 16.97494264 10.1015625 18.16796875 Z " fill="#56CC68" transform="translate(473.8984375,473.83203125)"/>
<path d="M0 0 C1.80868813 0.00333092 1.80868813 0.00333092 3.65391541 0.00672913 C4.64899864 0.00651009 4.64899864 0.00651009 5.66418457 0.00628662 C7.86644207 0.00698571 10.06861596 0.01477787 12.27085876 0.02259827 C13.79400588 0.02446246 15.31715359 0.02588636 16.84030151 0.02688599 C20.85657903 0.03071105 24.87282059 0.04054124 28.88908386 0.05158997 C32.98443617 0.06180433 37.07979427 0.06638366 41.17515564 0.07142639 C49.21618779 0.08216352 57.25719069 0.0992398 65.29820251 0.12025452 C67.51546142 4.55477232 67.20222681 9.35358097 66.29820251 14.12025452 C63.96111947 18.26923341 61.01548601 21.75273559 57.88121033 25.30726624 C55.6216247 27.89512602 53.46555037 30.56365111 51.29649353 33.22743225 C47.6882648 37.64991843 44.03149035 42.03252105 40.38560486 46.42396545 C38.50041399 48.69616956 36.61801631 50.97066693 34.73570251 53.24525452 C34.16432556 53.93135803 33.59294861 54.61746155 33.0042572 55.32435608 C32.46059509 55.98145569 31.91693298 56.6385553 31.35679626 57.31556702 C30.88556335 57.88291565 30.41433044 58.45026428 29.92881775 59.0348053 C27.61615323 61.99255052 25.46719706 65.05563517 23.29820251 68.12025452 C25.1909491 68.11239929 25.1909491 68.11239929 27.12193298 68.10438538 C31.7921732 68.08631994 36.46241031 68.07481683 41.13267517 68.06532288 C43.15611795 68.0602862 45.17955708 68.05345663 47.20298767 68.04481506 C50.10713094 68.0327204 53.0112262 68.02701964 55.91539001 68.02259827 C56.82376617 68.01743698 57.73214233 68.0122757 58.66804504 68.00695801 C59.50876556 68.00688248 60.34948608 68.00680695 61.21568298 68.00672913 C62.32820938 68.00339821 62.32820938 68.00339821 63.46321106 68 C65.29820251 68.12025452 65.29820251 68.12025452 67.29820251 69.12025452 C67.29820251 74.40025452 67.29820251 79.68025452 67.29820251 85.12025452 C63.90142467 86.2525138 61.31299876 86.24727111 57.73130798 86.24964905 C56.73819611 86.25227753 56.73819611 86.25227753 55.72502136 86.25495911 C53.53845086 86.25935763 51.35196133 86.25644735 49.16539001 86.25306702 C47.64749638 86.25374047 46.12960286 86.25471084 44.61170959 86.25596619 C41.43248975 86.25744031 38.253298 86.25529715 35.07408142 86.25062561 C30.99042979 86.24491877 26.90684374 86.24821515 22.8231945 86.25419807 C19.69033815 86.2578031 16.55749747 86.25666554 13.42464066 86.25407028 C11.91828021 86.25340135 10.41191835 86.25422826 8.90555954 86.25654984 C6.80577034 86.25907646 4.7060891 86.25523613 2.60630798 86.24964905 C1.40956451 86.24885345 0.21282104 86.24805786 -1.02018738 86.24723816 C-3.70179749 86.12025452 -3.70179749 86.12025452 -4.70179749 85.12025452 C-5.5952951 79.13550637 -6.04444005 73.47139783 -2.97523499 68.09681702 C-0.65697132 65.31649392 1.78009057 62.72009807 4.29820251 60.12025452 C5.79774525 58.30354961 7.27821168 56.47086674 8.73570251 54.62025452 C9.37378845 53.82619202 10.01187439 53.03212952 10.66929626 52.21400452 C11.94941504 50.56857607 13.1417971 48.85486264 14.29820251 47.12025452 C14.95820251 47.12025452 15.61820251 47.12025452 16.29820251 47.12025452 C16.54570251 46.58400452 16.79320251 46.04775452 17.04820251 45.49525452 C18.60472788 42.53785632 20.33255925 39.82301401 22.29820251 37.12025452 C22.95820251 37.12025452 23.61820251 37.12025452 24.29820251 37.12025452 C24.56632751 36.31587952 24.83445251 35.51150452 25.11070251 34.68275452 C25.50257751 33.83712952 25.89445251 32.99150452 26.29820251 32.12025452 C27.28820251 31.79025452 28.27820251 31.46025452 29.29820251 31.12025452 C30.5169018 28.61577936 30.5169018 28.61577936 31.29820251 26.12025452 C31.95820251 26.12025452 32.61820251 26.12025452 33.29820251 26.12025452 C33.73132751 25.22306702 33.73132751 25.22306702 34.17320251 24.30775452 C35.29820251 22.12025452 35.29820251 22.12025452 37.29820251 19.12025452 C35.48847961 19.08267029 35.48847961 19.08267029 33.64219666 19.04432678 C29.18244591 18.95042929 24.72285739 18.85016618 20.26329041 18.74794006 C18.33006067 18.7045241 16.39679093 18.66285409 14.46348572 18.62294006 C11.6908205 18.5653982 8.91835795 18.50165832 6.14585876 18.43666077 C4.84117393 18.41159203 4.84117393 18.41159203 3.51013184 18.38601685 C-2.58792578 18.23412622 -2.58792578 18.23412622 -3.70179749 17.12025452 C-3.80160962 14.44294072 -3.84059624 11.79721277 -3.82679749 9.12025452 C-3.83066467 8.37002014 -3.83453186 7.61978577 -3.83851624 6.84681702 C-3.82646478 0.17031242 -3.82646478 0.17031242 0 0 Z " fill="#FCFCFC" transform="translate(144.70179748535156,473.87974548339844)"/>
<path d="M0 0 C2.49687088 2.0296809 4.71110185 4.14975182 6.87890625 6.52734375 C5.34642576 10.1113707 3.21144615 12.55584509 0.50390625 15.33984375 C-0.26695312 16.15066406 -1.0378125 16.96148437 -1.83203125 17.796875 C-4.12109375 19.52734375 -4.12109375 19.52734375 -6.23828125 19.4375 C-8.12109375 18.52734375 -8.12109375 18.52734375 -10.87109375 16.15234375 C-16.68146222 11.15339831 -22.73799957 10.03255956 -30.2890625 10.22265625 C-34.76888715 10.70462359 -38.90056614 11.98927729 -43.12109375 13.52734375 C-43.12109375 14.18734375 -43.12109375 14.84734375 -43.12109375 15.52734375 C-43.88421875 16.26984375 -44.64734375 17.01234375 -45.43359375 17.77734375 C-49.87900935 22.32614111 -51.48794772 26.45351882 -51.58959961 32.6940918 C-51.57936768 33.42281494 -51.56913574 34.15153809 -51.55859375 34.90234375 C-51.55029541 35.65749268 -51.54199707 36.4126416 -51.53344727 37.19067383 C-51.33003452 43.87578657 -50.17577719 48.38761112 -45.4375 53.2578125 C-39.11490555 58.98213995 -33.61347072 60.42118904 -25.12109375 60.52734375 C-18.70164487 59.82521653 -12.43722902 57.21704923 -8.18359375 52.27734375 C-7.83296875 51.69984375 -7.48234375 51.12234375 -7.12109375 50.52734375 C-3.41064128 52.10515298 -0.82202991 54.43437623 2.12890625 57.15234375 C3.0209375 57.96960938 3.91296875 58.786875 4.83203125 59.62890625 C5.5075 60.25539063 6.18296875 60.881875 6.87890625 61.52734375 C3.66123799 68.97442132 -3.18162941 73.41138508 -10.43359375 76.46484375 C-22.91039732 81.27616016 -35.84494631 80.95502922 -48.12109375 75.52734375 C-57.95727513 69.95396749 -65.34371948 62.78207387 -70.12109375 52.52734375 C-70.44207031 51.87507812 -70.76304687 51.2228125 -71.09375 50.55078125 C-74.78415477 41.65948045 -74.5604573 29.68600786 -71.55859375 20.58984375 C-66.41947779 8.79485886 -57.79144745 -0.98218184 -45.74609375 -5.97265625 C-30.55740238 -11.45887253 -13.1053097 -9.4850584 0 0 Z " fill="#FCFCFB" transform="translate(444.12109375,481.47265625)"/>
<path d="M0 0 C0.804375 -0.00128906 1.60875 -0.00257813 2.4375 -0.00390625 C3.283125 -0.00003906 4.12875 0.00382812 5 0.0078125 C6.2684375 0.00201172 6.2684375 0.00201172 7.5625 -0.00390625 C8.366875 -0.00261719 9.17125 -0.00132812 10 0 C10.7425 0.00112793 11.485 0.00225586 12.25 0.00341797 C14 0.1328125 14 0.1328125 15 1.1328125 C15.09509559 3.74969691 15.12556 6.3401015 15.11352539 8.95727539 C15.11367142 9.77672134 15.11381744 10.5961673 15.1139679 11.44044495 C15.11326852 14.16214603 15.10547501 16.88377955 15.09765625 19.60546875 C15.09579216 21.48733991 15.09436821 23.36921156 15.09336853 25.25108337 C15.08954267 30.21429779 15.07971181 35.17748314 15.06866455 40.14068604 C15.0584519 45.20120856 15.05387122 50.26173577 15.04882812 55.32226562 C15.0380896 65.25912738 15.02101236 75.19596753 15 85.1328125 C10.66376971 85.8976052 6.59567383 86.26788833 2.1875 86.2578125 C0.47626953 86.26167969 0.47626953 86.26167969 -1.26953125 86.265625 C-4 86.1328125 -4 86.1328125 -5 85.1328125 C-5.10041457 82.52130962 -5.13617057 79.93622885 -5.12939453 77.32421875 C-5.13114685 76.50637909 -5.13289917 75.68853943 -5.13470459 74.84591675 C-5.13912385 72.1290274 -5.13618486 69.41220257 -5.1328125 66.6953125 C-5.13348552 64.81583646 -5.13445553 62.93636051 -5.13571167 61.05688477 C-5.13718874 57.11245904 -5.13503379 53.16805592 -5.13037109 49.22363281 C-5.1246738 44.15568747 -5.12795276 39.08779508 -5.13394356 34.01985168 C-5.13754892 30.13724363 -5.1364107 26.25464822 -5.13381577 22.37203979 C-5.13314643 20.50283807 -5.13397516 18.63363522 -5.13629532 16.76443481 C-5.13882143 14.15672746 -5.13498184 11.54910709 -5.12939453 8.94140625 C-5.13141876 8.16111053 -5.13344299 7.38081482 -5.13552856 6.57687378 C-5.10931764 0.00776155 -5.10931764 0.00776155 0 0 Z " fill="#FEFDFD" transform="translate(231,473.8671875)"/>
<path d="M0 0 C0.99 0.33 1.98 0.66 3 1 C3.76058633 2.68651752 4.51305979 4.3779574 5.1953125 6.09765625 C9.09330983 15.3128247 16.55388135 19.58924915 25 24 C25 24.99 25 25.98 25 27 C24.20335937 27.35191406 23.40671875 27.70382812 22.5859375 28.06640625 C11.34848618 33.30234768 7.06100182 38.87027476 2 50 C-1 49 -1 49 -1.921875 47.21484375 C-2.19515625 46.46332031 -2.4684375 45.71179688 -2.75 44.9375 C-6.07306525 37.00257614 -11.25695825 31.65237818 -19 28 C-21.26985894 27.23959428 -21.26985894 27.23959428 -23 27 C-22.78515625 25.13671875 -22.78515625 25.13671875 -22 23 C-19.99609375 21.83203125 -19.99609375 21.83203125 -17.4375 20.8125 C-8.92810634 16.83171069 -4.00862864 10.26313688 -0.59375 1.65234375 C-0.3978125 1.10707031 -0.201875 0.56179688 0 0 Z " fill="#ACACAC" transform="translate(967,943)"/>
<path d="M0 0 C0.804375 -0.00128906 1.60875 -0.00257813 2.4375 -0.00390625 C3.283125 -0.00003906 4.12875 0.00382812 5 0.0078125 C6.2684375 0.00201172 6.2684375 0.00201172 7.5625 -0.00390625 C8.366875 -0.00261719 9.17125 -0.00132812 10 0 C10.7425 0.00112793 11.485 0.00225586 12.25 0.00341797 C14 0.1328125 14 0.1328125 15 1.1328125 C15.09509559 3.74969691 15.12556 6.3401015 15.11352539 8.95727539 C15.11367142 9.77672134 15.11381744 10.5961673 15.1139679 11.44044495 C15.11326852 14.16214603 15.10547501 16.88377955 15.09765625 19.60546875 C15.09579216 21.48733991 15.09436821 23.36921156 15.09336853 25.25108337 C15.08954267 30.21429779 15.07971181 35.17748314 15.06866455 40.14068604 C15.0584519 45.20120856 15.05387122 50.26173577 15.04882812 55.32226562 C15.0380896 65.25912738 15.02101236 75.19596753 15 85.1328125 C9.25 86.2578125 9.25 86.2578125 7 85.1328125 C7.495 84.6378125 7.495 84.6378125 8 84.1328125 C9.65 84.1328125 11.3 84.1328125 13 84.1328125 C13 57.0728125 13 30.0128125 13 2.1328125 C7.72 2.1328125 2.44 2.1328125 -3 2.1328125 C-3 29.1928125 -3 56.2528125 -3 84.1328125 C-1.02 84.4628125 0.96 84.7928125 3 85.1328125 C3 85.4628125 3 85.7928125 3 86.1328125 C0.66705225 86.17522973 -1.66702567 86.17374187 -4 86.1328125 C-5.76328472 84.36952778 -5.12615644 82.03764106 -5.13552856 79.68875122 C-5.13350433 78.90845551 -5.1314801 78.12815979 -5.12939453 77.32421875 C-5.13114685 76.50637909 -5.13289917 75.68853943 -5.13470459 74.84591675 C-5.13912385 72.1290274 -5.13618486 69.41220257 -5.1328125 66.6953125 C-5.13348552 64.81583646 -5.13445553 62.93636051 -5.13571167 61.05688477 C-5.13718874 57.11245904 -5.13503379 53.16805592 -5.13037109 49.22363281 C-5.1246738 44.15568747 -5.12795276 39.08779508 -5.13394356 34.01985168 C-5.13754892 30.13724363 -5.1364107 26.25464822 -5.13381577 22.37203979 C-5.13314643 20.50283807 -5.13397516 18.63363522 -5.13629532 16.76443481 C-5.13882143 14.15672746 -5.13498184 11.54910709 -5.12939453 8.94140625 C-5.13141876 8.16111053 -5.13344299 7.38081482 -5.13552856 6.57687378 C-5.10931764 0.00776155 -5.10931764 0.00776155 0 0 Z " fill="#EBEBEA" transform="translate(231,473.8671875)"/>
<path d="M0 0 C1.80868813 0.00333092 1.80868813 0.00333092 3.65391541 0.00672913 C4.64899864 0.00651009 4.64899864 0.00651009 5.66418457 0.00628662 C7.86644207 0.00698571 10.06861596 0.01477787 12.27085876 0.02259827 C13.79400588 0.02446246 15.31715359 0.02588636 16.84030151 0.02688599 C20.85657903 0.03071105 24.87282059 0.04054124 28.88908386 0.05158997 C32.98443617 0.06180433 37.07979427 0.06638366 41.17515564 0.07142639 C49.21618779 0.08216352 57.25719069 0.0992398 65.29820251 0.12025452 C66.68046268 2.88477484 66.39345638 5.16639082 66.36070251 8.24525452 C66.35167908 9.34095764 66.34265564 10.43666077 66.33335876 11.56556702 C66.3217572 12.40861389 66.31015564 13.25166077 66.29820251 14.12025452 C65.30820251 13.62525452 65.30820251 13.62525452 64.29820251 13.12025452 C64.29820251 9.49025452 64.29820251 5.86025452 64.29820251 2.12025452 C42.51820251 2.12025452 20.73820251 2.12025452 -1.70179749 2.12025452 C-1.70179749 6.74025452 -1.70179749 11.36025452 -1.70179749 16.12025452 C12.15820251 16.12025452 26.01820251 16.12025452 40.29820251 16.12025452 C39.63820251 18.10025452 38.97820251 20.08025452 38.29820251 22.12025452 C37.63820251 21.79025452 36.97820251 21.46025452 36.29820251 21.12025452 C36.62820251 20.46025452 36.95820251 19.80025452 37.29820251 19.12025452 C35.48847961 19.08267029 35.48847961 19.08267029 33.64219666 19.04432678 C29.18244591 18.95042929 24.72285739 18.85016618 20.26329041 18.74794006 C18.33006067 18.7045241 16.39679093 18.66285409 14.46348572 18.62294006 C11.6908205 18.5653982 8.91835795 18.50165832 6.14585876 18.43666077 C4.84117393 18.41159203 4.84117393 18.41159203 3.51013184 18.38601685 C-2.58792578 18.23412622 -2.58792578 18.23412622 -3.70179749 17.12025452 C-3.80160962 14.44294072 -3.84059624 11.79721277 -3.82679749 9.12025452 C-3.83066467 8.37002014 -3.83453186 7.61978577 -3.83851624 6.84681702 C-3.82646478 0.17031242 -3.82646478 0.17031242 0 0 Z " fill="#EEEDEC" transform="translate(144.70179748535156,473.87974548339844)"/>
<path d="M0 0 C0.87454834 0.00523682 1.74909668 0.01047363 2.65014648 0.01586914 C3.59438477 0.0190918 4.53862305 0.02231445 5.51147461 0.02563477 C6.50469727 0.03401367 7.49791992 0.04239258 8.52124023 0.05102539 C9.51833008 0.05553711 10.51541992 0.06004883 11.54272461 0.06469727 C14.01478872 0.07652532 16.48673541 0.0930069 18.95874023 0.11352539 C19.61874023 1.76352539 20.27874023 3.41352539 20.95874023 5.11352539 C19.63874023 4.45352539 18.31874023 3.79352539 16.95874023 3.11352539 C11.01874023 2.78352539 5.07874023 2.45352539 -1.04125977 2.11352539 C-1.04125977 29.17352539 -1.04125977 56.23352539 -1.04125977 84.11352539 C0.60874023 84.11352539 2.25874023 84.11352539 3.95874023 84.11352539 C0.95874023 86.11352539 0.95874023 86.11352539 -1.22875977 85.73852539 C-1.82688477 85.53227539 -2.42500977 85.32602539 -3.04125977 85.11352539 C-3.06438274 74.17856068 -3.08217462 63.24360173 -3.09307194 52.30861759 C-3.09830087 47.23161521 -3.10539869 42.1546295 -3.11669922 37.07763672 C-3.12752775 32.18231987 -3.13353653 27.2870191 -3.13613701 22.39169121 C-3.13799132 20.51969588 -3.14161205 18.64770148 -3.14698982 16.77571297 C-3.15419981 14.1631184 -3.15525073 11.55059112 -3.15478516 8.93798828 C-3.15838043 8.15612152 -3.16197571 7.37425476 -3.16567993 6.56869507 C-3.15326942 0.1753702 -3.15326942 0.1753702 0 0 Z " fill="#EAEAE7" transform="translate(269.041259765625,473.886474609375)"/>
<path d="M0 0 C0.66 0 1.32 0 2 0 C2 17.82 2 35.64 2 54 C3.32 54.33 4.64 54.66 6 55 C4.02 55 2.04 55 0 55 C-0.33 38.83 -0.66 22.66 -1 6 C-1.99 6.99 -2.98 7.98 -4 9 C-2.94124926 5.59687262 -1.99097846 2.98646769 0 0 Z " fill="#EDEEEC" transform="translate(337,504)"/>
<path d="M0 0 C4.60676204 4.2136061 7.89511691 8.98460691 11.3125 14.1875 C11.86228516 15.00669922 12.41207031 15.82589844 12.97851562 16.66992188 C17 22.73961568 17 22.73961568 17 25 C23.6 25 30.2 25 37 25 C37.33 24.34 37.66 23.68 38 23 C38.495 24.98 38.495 24.98 39 27 C35.58362047 27.11632513 32.16775103 27.18728897 28.75 27.25 C27.78191406 27.28351562 26.81382812 27.31703125 25.81640625 27.3515625 C24.41455078 27.37089844 24.41455078 27.37089844 22.984375 27.390625 C22.12553711 27.41157227 21.26669922 27.43251953 20.38183594 27.45410156 C16.31752305 26.67923256 14.62713837 23.84739387 12.26074219 20.64990234 C11.41237793 19.38073975 11.41237793 19.38073975 10.546875 18.0859375 C9.928125 17.16039062 9.309375 16.23484375 8.671875 15.28125 C8.03765625 14.3221875 7.4034375 13.363125 6.75 12.375 C6.1003125 11.40820312 5.450625 10.44140625 4.78125 9.4453125 C4.16765625 8.52234375 3.5540625 7.599375 2.921875 6.6484375 C2.36081055 5.80458496 1.79974609 4.96073242 1.22167969 4.09130859 C0 2 0 2 0 0 Z " fill="#56BC6C" transform="translate(500,533)"/>
<path d="M0 0 C0.33 0.66 0.66 1.32 1 2 C3.5263765 2.28628332 5.96566825 2.46717192 8.5 2.5625 C15.88075264 2.88075264 15.88075264 2.88075264 17 4 C17.0927833 5.38160115 17.11747043 6.76788038 17.11352539 8.15258789 C17.11344986 9.03342545 17.11337433 9.914263 17.11329651 10.8217926 C17.10813522 11.77907761 17.10297394 12.73636261 17.09765625 13.72265625 C17.0962413 14.69786728 17.09482635 15.67307831 17.09336853 16.67784119 C17.08775133 19.80609143 17.07519593 22.93427123 17.0625 26.0625 C17.05748722 28.17773334 17.05292393 30.29296781 17.04882812 32.40820312 C17.03777631 37.60549296 17.02102146 42.80274145 17 48 C16.67 48 16.34 48 16 48 C16 33.81 16 19.62 16 5 C10.39 5 4.78 5 -1 5 C-1 1 -1 1 0 0 Z " fill="#58BC6B" transform="translate(770,511)"/>
<path d="M0 0 C1.36575504 4.39504765 0.19779975 7.76274189 -1.08984375 12.046875 C-1.42490685 13.20367767 -1.42490685 13.20367767 -1.76673889 14.3838501 C-2.48105914 16.84204965 -3.20906645 19.29594989 -3.9375 21.75 C-4.42473617 23.41770373 -4.91107507 25.08566988 -5.39648438 26.75390625 C-6.58727293 30.83905353 -7.79035104 34.92039959 -9 39 C-9.99 38.67 -10.98 38.34 -12 38 C-12.33 35.36 -12.66 32.72 -13 30 C-12.01 31.32 -11.02 32.64 -10 34 C-9.83918945 33.43192627 -9.67837891 32.86385254 -9.51269531 32.27856445 C-6.45294792 21.48324315 -3.37531963 10.7017487 0 0 Z " fill="#54BF6D" transform="translate(744,495)"/>
<path d="M0 0 C3.79160297 -0.05786668 7.58309311 -0.09355054 11.375 -0.125 C12.45523438 -0.14175781 13.53546875 -0.15851563 14.6484375 -0.17578125 C15.6796875 -0.18222656 16.7109375 -0.18867188 17.7734375 -0.1953125 C19.20308838 -0.21102295 19.20308838 -0.21102295 20.66162109 -0.22705078 C23 0 23 0 25 2 C17.08 2 9.16 2 1 2 C0.67 2.66 0.34 3.32 0 4 C0 2.68 0 1.36 0 0 Z " fill="#56B969" transform="translate(803,474)"/>
<path d="M0 0 C3 1 3 1 3.984375 2.9609375 C4.23703125 3.75757813 4.4896875 4.55421875 4.75 5.375 C5.01296875 6.16648437 5.2759375 6.95796875 5.546875 7.7734375 C6 10 6 10 5 13 C3.68 10.03 2.36 7.06 1 4 C-0.32 8.29 -1.64 12.58 -3 17 C-3.33 17 -3.66 17 -4 17 C-3.45018084 10.95198929 -2.09570426 5.69398894 0 0 Z " fill="#53BD66" transform="translate(705,502)"/>
<path d="M0 0 C0.66 0.33 1.32 0.66 2 1 C0.46751951 4.58402695 -1.6674601 7.02850134 -4.375 9.8125 C-5.14585937 10.62332031 -5.91671875 11.43414062 -6.7109375 12.26953125 C-9 14 -9 14 -11.1484375 13.921875 C-13.87907829 12.56231545 -15.24698846 10.44169464 -17 8 C-14.50638429 9.20381448 -12.31856917 10.45428722 -10 12 C-8.70212134 10.75645114 -7.41193241 9.5048736 -6.125 8.25 C-5.40570313 7.55390625 -4.68640625 6.8578125 -3.9453125 6.140625 C-2.13520321 4.14877783 -1.05151914 2.4572342 0 0 Z " fill="#EAEFEE" transform="translate(449,487)"/>
<path d="M0 0 C1 3 1 3 -0.21484375 5.69921875 C-0.78332031 6.68535156 -1.35179687 7.67148437 -1.9375 8.6875 C-2.50339844 9.68136719 -3.06929688 10.67523437 -3.65234375 11.69921875 C-4.31943359 12.83810547 -4.31943359 12.83810547 -5 14 C-5.33 13.34 -5.66 12.68 -6 12 C-5.0390625 9.43359375 -5.0390625 9.43359375 -3.625 6.4375 C-3.16351563 5.44621094 -2.70203125 4.45492187 -2.2265625 3.43359375 C-1 1 -1 1 0 0 Z " fill="#EEF1EF" transform="translate(324,529)"/>
</svg>
