<?xml version="1.0" encoding="UTF-8"?>
<svg version="1.1" xmlns="http://www.w3.org/2000/svg" width="1024" height="1024">
<path d="M0 0 C6.93 0 13.86 0 21 0 C24.74344929 10.9094808 27.99737878 21.86629131 31 33 C31.56209173 35.0626113 32.12452125 37.12513063 32.6875 39.1875 C33.03167969 40.45013672 33.03167969 40.45013672 33.3828125 41.73828125 C33.58648438 42.48464844 33.79015625 43.23101563 34 44 C34.18304687 44.67417969 34.36609375 45.34835937 34.5546875 46.04296875 C35.50336846 49.46551774 36.65794633 52.71447441 38 56 C38.33733154 54.80101074 38.67466309 53.60202148 39.0222168 52.36669922 C40.29401144 47.85130961 41.57225354 43.33776507 42.85229492 38.82470703 C43.40186372 36.88378619 43.94976154 34.94239131 44.49584961 33.00048828 C47.63536838 21.84095226 50.94011143 10.86152007 55 0 C61.27 0 67.54 0 74 0 C78.01785714 10.58035714 78.01785714 10.58035714 78.9375 15.3125 C79.72155815 19.22585219 80.98311738 22.8226087 82.375 26.5625 C84.54930795 32.46969064 86.21753187 38.36878535 87.65576172 44.49438477 C88.57719379 48.41172166 89.66946755 52.20182808 91 56 C91.21914063 55.14921875 91.43828125 54.2984375 91.6640625 53.421875 C94.27900973 43.4298002 97.19356615 33.54587393 100.19580078 23.6640625 C101.03527254 20.88315302 101.86103271 18.09845574 102.68359375 15.3125 C103.09279053 13.93130981 103.09279053 13.93130981 103.51025391 12.5222168 C104.03697977 10.74311444 104.56146701 8.96334748 105.08349609 7.18286133 C106.88780847 1.11219153 106.88780847 1.11219153 108 0 C109.4887186 -0.08669432 110.981445 -0.10703494 112.47265625 -0.09765625 C113.37177734 -0.09443359 114.27089844 -0.09121094 115.19726562 -0.08789062 C116.61555664 -0.07532227 116.61555664 -0.07532227 118.0625 -0.0625 C119.4865918 -0.05573242 119.4865918 -0.05573242 120.93945312 -0.04882812 C123.29303065 -0.0370011 125.64648477 -0.02052025 128 0 C127.52595127 2.4102514 127.04747148 4.81926112 126.55859375 7.2265625 C126.22450873 8.88530633 125.90059874 10.54622439 125.59765625 12.2109375 C124.50111894 17.8293858 122.52714608 22.913849 120.421875 28.2265625 C116.15571582 39.28411437 113.03911253 50.8092766 109.76269531 62.18920898 C108.37560112 66.92807033 106.75382301 71.48807378 104.796875 76.01953125 C103.95455371 77.97403011 103.95455371 77.97403011 103.515625 80.01171875 C102.94830376 82.19934382 102.03356678 83.99674734 101 86 C97.89632503 86.14515677 94.79351973 86.23400853 91.6875 86.3125 C90.80642578 86.35439453 89.92535156 86.39628906 89.01757812 86.43945312 C86.59357055 86.48553692 84.38402992 86.44195714 82 86 C78.29438541 82.33948417 77.45311459 76.07983791 76.125 71.125 C74.33165643 64.63317479 72.4868938 58.18771226 70.3125 51.8125 C65 36.20060484 65 36.20060484 65 32 C64.34 32 63.68 32 63 32 C62.88398437 33.14339844 62.76796875 34.28679687 62.6484375 35.46484375 C62.08122007 39.98566614 60.94810526 44.21121635 59.625 48.5625 C59.41617188 49.27857422 59.20734375 49.99464844 58.9921875 50.73242188 C57.96752756 54.16565746 56.83981383 57.36697907 55.40234375 60.66015625 C54.07648927 63.81783196 53.41869009 66.5019976 52.9375 69.875 C52.52734375 72.7421875 52.52734375 72.7421875 52 75 C51.01 75.495 51.01 75.495 50 76 C49.349461 78.08611558 49.349461 78.08611558 48.9375 80.5 C48.09393346 84.90606654 48.09393346 84.90606654 47 86 C43.8617655 86.24966567 40.70950387 86.18521791 37.5625 86.1875 C36.23508789 86.20586914 36.23508789 86.20586914 34.88085938 86.22460938 C34.03458984 86.22654297 33.18832031 86.22847656 32.31640625 86.23046875 C31.53724854 86.23457764 30.75809082 86.23868652 29.95532227 86.24291992 C28 86 28 86 26 84 C24.98393993 81.23032609 24.05219033 78.47482545 23.1640625 75.6640625 C22.88832397 74.80917236 22.61258545 73.95428223 22.32849121 73.07348633 C21.42177201 70.2590765 20.52334065 67.44209426 19.625 64.625 C18.36736481 60.70743629 17.10577421 56.79115171 15.84375 52.875 C15.5247171 51.88319733 15.2056842 50.89139465 14.87698364 49.86953735 C12.76944937 43.33339378 10.61019831 36.81672982 8.40625 30.3125 C8.12607025 29.48358246 7.8458905 28.65466492 7.55722046 27.80062866 C6.48667213 24.63555496 5.41559216 21.47076662 4.32989502 18.31085205 C3.59108303 16.15988855 2.86121075 14.00607029 2.1328125 11.8515625 C1.71918457 10.64322754 1.30555664 9.43489258 0.87939453 8.18994141 C0 5 0 5 0 0 Z " fill="#61B567" transform="translate(639,474)"/>
<path d="M0 0 C0.83265381 0.00523682 1.66530762 0.01047363 2.52319336 0.01586914 C3.42231445 0.0190918 4.32143555 0.02231445 5.24780273 0.02563477 C6.66609375 0.03820312 6.66609375 0.03820312 8.11303711 0.05102539 C9.06243164 0.05553711 10.01182617 0.06004883 10.98999023 0.06469727 C13.34356776 0.07652429 15.69702188 0.09300514 18.05053711 0.11352539 C19.02919296 1.82617313 20.00779977 3.53884893 20.98608398 5.25170898 C21.83364558 6.73416419 22.68382916 8.21512025 23.53491211 9.69555664 C23.95256836 10.43161133 24.37022461 11.16766602 24.80053711 11.92602539 C25.22850586 12.6749707 25.65647461 13.42391602 26.09741211 14.19555664 C27.05053711 16.11352539 27.05053711 16.11352539 27.05053711 18.11352539 C27.71053711 18.44352539 28.37053711 18.77352539 29.05053711 19.11352539 C30.08789062 20.92358398 30.08789062 20.92358398 31.17944336 23.26196289 C31.57454102 24.10243164 31.96963867 24.94290039 32.37670898 25.80883789 C32.98869141 27.1352832 32.98869141 27.1352832 33.61303711 28.48852539 C34.02489258 29.36508789 34.43674805 30.24165039 34.86108398 31.14477539 C36.40365136 34.44703091 37.89698112 37.65285742 39.05053711 41.11352539 C40.04053711 41.60852539 40.04053711 41.60852539 41.05053711 42.11352539 C42.34471131 40.88472323 42.34471131 40.88472323 44.05053711 38.11352539 C44.71053711 38.11352539 45.37053711 38.11352539 46.05053711 38.11352539 C46.14334961 36.84508789 46.14334961 36.84508789 46.23803711 35.55102539 C47.1328967 31.76508097 48.49471941 29.79602056 50.89428711 26.82446289 C52.18048082 24.92124382 52.57619643 23.34518536 53.05053711 21.11352539 C53.68708053 19.7655511 54.34659099 18.42755815 55.05053711 17.11352539 C55.71053711 17.11352539 56.37053711 17.11352539 57.05053711 17.11352539 C57.27741211 16.32977539 57.50428711 15.54602539 57.73803711 14.73852539 C61.88837495 3.27568755 61.88837495 3.27568755 65.05053711 0.11352539 C66.51532217 0.01469203 67.98476669 -0.0172675 69.45288086 -0.01928711 C70.34297852 -0.02057617 71.23307617 -0.02186523 72.15014648 -0.02319336 C73.55490234 -0.01739258 73.55490234 -0.01739258 74.98803711 -0.01147461 C75.92067383 -0.0153418 76.85331055 -0.01920898 77.81420898 -0.02319336 C78.7055957 -0.0219043 79.59698242 -0.02061523 80.51538086 -0.01928711 C81.33643311 -0.01815918 82.15748535 -0.01703125 83.00341797 -0.01586914 C85.05053711 0.11352539 85.05053711 0.11352539 87.05053711 1.11352539 C87.05053711 28.83352539 87.05053711 56.55352539 87.05053711 85.11352539 C81.37799114 87.94979838 74.39263631 86.11352539 68.05053711 86.11352539 C67.72053711 69.28352539 67.39053711 52.45352539 67.05053711 35.11352539 C62.19515741 43.92040787 62.19515741 43.92040787 61.05053711 49.11352539 C60.39053711 49.11352539 59.73053711 49.11352539 59.05053711 49.11352539 C58.92759277 49.67668457 58.80464844 50.23984375 58.67797852 50.82006836 C57.48429827 55.18327158 55.37574525 59.17127715 53.42553711 63.23852539 C53.01174805 64.15762695 52.59795898 65.07672852 52.17163086 66.02368164 C49.03047404 72.52558984 49.03047404 72.52558984 46.25195312 74.19262695 C43.3986683 75.06526436 41.16629867 75.13410522 38.23803711 74.61352539 C35.26593993 72.5755159 34.99020338 70.51078039 34.05053711 67.11352539 C33.06053711 66.61852539 33.06053711 66.61852539 32.05053711 66.11352539 C29.91275135 62.90684675 28.44652138 59.69073508 27.05053711 56.11352539 C26.06696359 54.10539613 25.06744975 52.1049793 24.05053711 50.11352539 C23.58647461 49.15446289 23.58647461 49.15446289 23.11303711 48.17602539 C22.12663836 46.26125135 21.07067222 44.41253468 19.98803711 42.55102539 C18.05053711 39.11352539 18.05053711 39.11352539 17.05053711 36.11352539 C17.03507591 37.03100807 17.03507591 37.03100807 17.01930237 37.96702576 C16.91146966 44.30934855 16.79685369 50.65152253 16.67822266 56.99365234 C16.63479901 59.36341247 16.59312962 61.73320539 16.55322266 64.10302734 C16.49569943 67.50115872 16.43195408 70.89912382 16.36694336 74.29711914 C16.35023087 75.36377304 16.33351837 76.43042694 16.31629944 77.52940369 C16.29635422 78.510345 16.276409 79.49128632 16.25585938 80.50195312 C16.24031509 81.37021225 16.22477081 82.23847137 16.20875549 83.13304138 C16.05053711 85.11352539 16.05053711 85.11352539 15.05053711 86.11352539 C12.20718663 86.21339514 9.39356548 86.2523042 6.55053711 86.23852539 C5.75260742 86.24239258 4.95467773 86.24625977 4.13256836 86.25024414 C-1.82285522 86.24013306 -1.82285522 86.24013306 -2.94946289 85.11352539 C-3.04987746 82.50202251 -3.08563346 79.91694174 -3.07885742 77.30493164 C-3.08060974 76.48709198 -3.08236206 75.66925232 -3.08416748 74.82662964 C-3.08858674 72.10974029 -3.08564775 69.39291546 -3.08227539 66.67602539 C-3.08294841 64.79654935 -3.08391842 62.9170734 -3.08517456 61.03759766 C-3.08665163 57.09317193 -3.08449668 53.14876881 -3.07983398 49.2043457 C-3.07413669 44.13640036 -3.07741565 39.06850797 -3.08340645 34.00056458 C-3.08701181 30.11795652 -3.08587359 26.23536111 -3.08327866 22.35275269 C-3.08260932 20.48355096 -3.08343805 18.61434811 -3.08575821 16.74514771 C-3.08828432 14.13744035 -3.08444473 11.52981998 -3.07885742 8.92211914 C-3.08088165 8.14182343 -3.08290588 7.36152771 -3.08499146 6.55758667 C-3.05953742 0.17816968 -3.05953742 0.17816968 0 0 Z " fill="#010101" transform="translate(270.949462890625,473.886474609375)"/>
<path d="M0 0 C0.99 0 1.98 0 3 0 C3.28875 0.94875 3.5775 1.8975 3.875 2.875 C4.76825109 6.05211578 4.76825109 6.05211578 7 8 C8.76334986 10.69714351 10.45169795 13.4363317 12.1484375 16.17578125 C13.95015346 19.02284136 13.95015346 19.02284136 16.07421875 21.58203125 C17.83219918 23.78931296 19.13690482 25.88181754 20.4375 28.375 C22.06024976 31.39371771 23.77549329 34.18121126 25.8125 36.9375 C28 40 28 40 28 42 C20.08 42.495 20.08 42.495 12 43 C12.08378906 44.30195312 12.16757812 45.60390625 12.25390625 46.9453125 C12.3571234 48.67185396 12.45996835 50.3984177 12.5625 52.125 C12.61857422 52.9809375 12.67464844 53.836875 12.73242188 54.71875 C12.99798352 59.32181859 13.00515346 63.45819546 12 68 C15.31342702 67.91796877 18.62516492 67.80524229 21.9375 67.6875 C22.86369141 67.66494141 23.78988281 67.64238281 24.74414062 67.61914062 C30.80612871 67.38516915 36.49305363 66.7098377 42 64 C44.41144481 61.46900795 44.41144481 61.46900795 46 59 C46.66 59 47.32 59 48 59 C48.28875 58.13375 48.5775 57.2675 48.875 56.375 C49.57519838 54.27440485 50.31813905 52.18697798 51.125 50.125 C53.55517458 41.44580506 51.22411895 34.75539299 47 27 C43.37460466 22.24297836 37.72818904 20.09597638 32 19 C30.47439453 19.061875 30.47439453 19.061875 28.91796875 19.125 C20.63466577 19.43943143 20.63466577 19.43943143 17.34423828 16.54199219 C8 5.99068428 8 5.99068428 8 0 C43.93331225 -0.92100367 43.93331225 -0.92100367 57 9 C57.98226562 9.73089844 57.98226562 9.73089844 58.984375 10.4765625 C66.34539641 16.35908816 71.0356901 23.7381732 73 33 C74.39449716 47.17528449 73.07787449 60.45844809 64 72 C61.80859375 73.28125 61.80859375 73.28125 60 74 C60 74.66 60 75.32 60 76 C53.50878278 79.74913294 47.24548083 83.00569934 40 85 C39.39198547 85.17385727 38.78397095 85.34771454 38.15753174 85.52684021 C35.87005877 86.0284969 33.8470538 86.12025015 31.50683594 86.11352539 C30.18591949 86.11341209 30.18591949 86.11341209 28.83831787 86.11329651 C27.89651672 86.10813522 26.95471558 86.10297394 25.984375 86.09765625 C24.52792572 86.09553383 24.52792572 86.09553383 23.04205322 86.09336853 C19.94467065 86.08777663 16.84736068 86.07522559 13.75 86.0625 C11.64843854 86.05748395 9.54687596 86.05292123 7.4453125 86.04882812 C2.29684708 86.03780985 -2.85156416 86.02055074 -8 86 C-9.19536461 81.31367437 -9.12759836 76.77970671 -9.09765625 71.98046875 C-9.0962413 71.12189774 -9.09482635 70.26332672 -9.09336853 69.3787384 C-9.08779057 66.64828951 -9.07524214 63.91792393 -9.0625 61.1875 C-9.05748215 59.3313814 -9.05291974 57.4752615 -9.04882812 55.61914062 C-9.03782836 51.0793952 -9.02057893 46.5397117 -9 42 C-9.98742187 42.08378906 -10.97484375 42.16757812 -11.9921875 42.25390625 C-13.27351562 42.35574219 -14.55484375 42.45757813 -15.875 42.5625 C-17.78925781 42.71912109 -17.78925781 42.71912109 -19.7421875 42.87890625 C-23 43 -23 43 -25 42 C-24.43803835 38.13693937 -23.36906229 35.64681367 -21.15625 32.4453125 C-20.57319092 31.58969727 -19.99013184 30.73408203 -19.3894043 29.85253906 C-18.76590088 28.95245117 -18.14239746 28.05236328 -17.5 27.125 C-12.26137769 19.43338795 -7.27406146 11.67104691 -2.57421875 3.640625 C-1 1 -1 1 0 0 Z " fill="#62B568" transform="translate(788,474)"/>
<path d="M0 0 C8.34779542 6.16569692 15.97132458 15.49598268 18.86328125 25.609375 C20.63523415 39.82669123 19.40576366 52.30997208 10.875 64.21484375 C3.55672065 73.18399076 -6.60336853 78.62366312 -17.8046875 81.2734375 C-32.68145535 82.68531856 -44.84401267 79.7175924 -57.109375 70.82421875 C-57.66882813 70.31246094 -58.22828125 69.80070313 -58.8046875 69.2734375 C-58.8046875 68.6134375 -58.8046875 67.9534375 -58.8046875 67.2734375 C-59.4646875 67.2734375 -60.1246875 67.2734375 -60.8046875 67.2734375 C-70.218018 56.40841266 -72.67710076 44.3308134 -71.8046875 30.2734375 C-70.11254356 19.74799174 -64.26106576 9.34016147 -55.8984375 2.73046875 C-38.98868464 -9.03695255 -17.92268655 -11.03318587 0 0 Z M-33.3671875 12.6484375 C-34.31722656 12.90367187 -35.26726563 13.15890625 -36.24609375 13.421875 C-39.0009134 14.21390637 -39.0009134 14.21390637 -41.8046875 16.2734375 C-41.8046875 16.9334375 -41.8046875 17.5934375 -41.8046875 18.2734375 C-42.7946875 18.6034375 -43.7846875 18.9334375 -44.8046875 19.2734375 C-46.21246401 20.79737532 -46.21246401 20.79737532 -47.4296875 22.6484375 C-47.85507812 23.25429688 -48.28046875 23.86015625 -48.71875 24.484375 C-52.66615066 30.9876466 -50.97007098 40.23570178 -49.69921875 47.39453125 C-48.04641556 52.71381487 -44.52921848 56.65542102 -39.765625 59.484375 C-37.69312244 60.46008832 -37.69312244 60.46008832 -34.8046875 60.2734375 C-34.8046875 60.9334375 -34.8046875 61.5934375 -34.8046875 62.2734375 C-26.21037919 63.60115945 -18.97535485 63.71363459 -11.5546875 58.7109375 C-6.41927385 54.53905456 -3.07517555 48.76848353 -1.8046875 42.2734375 C-1.37819047 33.88566258 -2.11400448 25.83961021 -7.8046875 19.2734375 C-15.81308102 12.80153809 -23.1159566 9.83109241 -33.3671875 12.6484375 Z " fill="#60B567" transform="translate(616.8046875,479.7265625)"/>
<path d="M0 0 C5.90410675 -0.07481809 11.80793032 -0.12891456 17.71240234 -0.16479492 C19.71603205 -0.17977142 21.71962961 -0.20015981 23.72314453 -0.22631836 C52.50365748 -0.59235481 52.50365748 -0.59235481 63 8 C68.49927443 13.49927443 71.2935543 19.9811466 72.07421875 27.7265625 C71.91389256 32.63760689 70.38967231 37.31726535 69 42 C68.505 43.7634375 68.505 43.7634375 68 45.5625 C65.8830308 50.72261242 61.71109857 52.42222908 57 55 C58.26863822 59.32627001 59.87217625 62.62136139 62.4765625 66.29296875 C63.146875 67.25267578 63.8171875 68.21238281 64.5078125 69.20117188 C65.20648437 70.18666016 65.90515625 71.17214844 66.625 72.1875 C68.01938194 74.15566502 69.40772375 76.12812766 70.7890625 78.10546875 C71.71259521 79.40713989 71.71259521 79.40713989 72.65478516 80.73510742 C74 83 74 83 74 86 C54.45045805 87.62558555 54.45045805 87.62558555 49.2265625 84.16015625 C47.45041766 81.52095511 46.23488588 78.92944537 45 76 C43.77983517 74.04357366 42.52959208 72.10558508 41.25 70.1875 C39.57615509 67.5398528 38.02582925 65.05777383 36.74609375 62.1953125 C35.11084591 59.62502896 35.11084591 59.62502896 31.64453125 59.51171875 C30.37996094 59.56972656 29.11539062 59.62773438 27.8125 59.6875 C25.90404297 59.75517578 25.90404297 59.75517578 23.95703125 59.82421875 C22.98121094 59.88222656 22.00539063 59.94023438 21 60 C20.97494385 60.7520874 20.9498877 61.5041748 20.92407227 62.27905273 C20.80849486 65.66539196 20.68559655 69.05142613 20.5625 72.4375 C20.52318359 73.62150391 20.48386719 74.80550781 20.44335938 76.02539062 C20.40146484 77.15009766 20.35957031 78.27480469 20.31640625 79.43359375 C20.27974854 80.47572021 20.24309082 81.51784668 20.20532227 82.59155273 C20 85 20 85 19 86 C17.58429877 86.08651611 16.164405 86.10704904 14.74609375 86.09765625 C13.89208984 86.09443359 13.03808594 86.09121094 12.15820312 86.08789062 C11.26037109 86.07951172 10.36253906 86.07113281 9.4375 86.0625 C8.53580078 86.05798828 7.63410156 86.05347656 6.70507812 86.04882812 C4.46998366 86.03700223 2.23503507 86.01968245 0 86 C-0.92986789 77.67486564 -1.14655043 69.44639073 -1.1328125 61.07421875 C-1.13376923 59.76902786 -1.13472595 58.46383698 -1.13571167 57.11909485 C-1.137175 54.37178344 -1.13507951 51.62450482 -1.13037109 48.87719727 C-1.12469168 45.39815227 -1.12795025 41.91918476 -1.13394356 38.44014263 C-1.1384792 35.06816223 -1.13527879 31.69620133 -1.1328125 28.32421875 C-1.13483673 27.09668381 -1.13686096 25.86914886 -1.13894653 24.60441589 C-1.11699978 16.35597697 -0.68760365 8.21894655 0 0 Z M20 18 C20 25.92 20 33.84 20 42 C23.485625 42.0825 26.97125 42.165 30.5625 42.25 C31.64732666 42.28641602 32.73215332 42.32283203 33.84985352 42.36035156 C40.15004723 42.43221469 43.8752836 41.73213042 49 38 C51.40964187 35.06652294 51.41801672 31.77192567 51.3203125 28.03125 C50.78643864 24.64570842 49.19273902 22.55819552 47 20 C43.81280567 17.96244135 41.32241482 17.76308428 37.578125 17.8046875 C36.65418945 17.80968262 35.73025391 17.81467773 34.77832031 17.81982422 C33.03180176 17.84713623 33.03180176 17.84713623 31.25 17.875 C25.68125 17.936875 25.68125 17.936875 20 18 Z " fill="#60B567" transform="translate(464,474)"/>
<path d="M0 0 C8.8488239 -0.02312589 17.69763747 -0.04091634 26.54648495 -0.05181217 C30.65494285 -0.05704046 34.76338014 -0.06413713 38.87182617 -0.07543945 C42.83346828 -0.08627025 46.79509052 -0.09227724 50.75674629 -0.09487724 C52.27148311 -0.09673114 53.78621879 -0.1003511 55.30094719 -0.10573006 C57.41541813 -0.11294307 59.52980594 -0.11399083 61.64428711 -0.11352539 C62.85007919 -0.115746 64.05587128 -0.11796661 65.29820251 -0.12025452 C68 0 68 0 69 1 C70.03728165 6.32679221 70.69070666 11.97519524 67.96289062 16.85546875 C65.16027151 20.67232964 61.86812403 24.03598029 58.546875 27.40087891 C56.40683665 29.6131976 54.48626692 31.97388047 52.5625 34.375 C51.49515625 35.68984375 51.49515625 35.68984375 50.40625 37.03125 C49.6121875 38.0109375 48.818125 38.990625 48 40 C46.96919206 41.26077822 45.93791001 42.52116891 44.90625 43.78125 C43.79158554 45.14576706 42.677002 46.51035024 41.5625 47.875 C41.06113525 48.48649902 40.55977051 49.09799805 40.04321289 49.72802734 C34.88836139 56.05447317 29.98332412 62.52167865 25 69 C39.85 69 54.7 69 70 69 C71 83 71 83 70 86 C60.76002448 86.02312524 51.52005886 86.04091601 42.28006077 86.05181217 C37.99000085 86.05704061 33.69996067 86.06413753 29.40991211 86.07543945 C25.273206 86.08626975 21.13651892 86.09227714 16.99979973 86.09487724 C15.41807696 86.09673124 13.83635529 86.10035136 12.25464058 86.10573006 C10.04677162 86.1129424 7.83898227 86.11399086 5.63110352 86.11352539 C3.74247337 86.11685631 3.74247337 86.11685631 1.81568909 86.12025452 C-1 86 -1 86 -2 85 C-2.83408765 79.34236775 -3.50720373 73.48289985 -0.44921875 68.4453125 C1.47870181 66.40813136 3.47957844 64.47734789 5.50976562 62.54345703 C8.61851458 59.32368133 11.24153589 55.68995156 13.9375 52.125 C14.5049292 51.38660889 15.0723584 50.64821777 15.65698242 49.88745117 C18.60778091 46.07024518 18.60778091 46.07024518 21.02563477 41.91357422 C22.47189438 39.07323775 24.72857296 37.21860315 27 35 C27.9064295 33.9045152 28.80246459 32.80034038 29.6875 31.6875 C30.450625 30.800625 31.21375 29.91375 32 29 C32.66 29 33.32 29 34 29 C35.20628008 26.66785852 36.1654738 24.50357861 37 22 C38.5625 20.3125 38.5625 20.3125 40 19 C38.23571655 18.96241577 38.23571655 18.96241577 36.43579102 18.92407227 C32.08785378 18.83017194 27.74008284 18.72990952 23.39233398 18.62768555 C21.50760782 18.58427067 19.62284064 18.54260057 17.73803711 18.50268555 C15.03486751 18.44514107 12.33190564 18.38140196 9.62890625 18.31640625 C8.78099014 18.29969376 7.93307404 18.28298126 7.0594635 18.26576233 C1.11387171 18.11387171 1.11387171 18.11387171 0 17 C-0.07325168 14.13732433 -0.09238205 11.299281 -0.0625 8.4375 C-0.05798828 7.63119141 -0.05347656 6.82488281 -0.04882812 5.99414062 C-0.03700518 3.99606244 -0.01906914 1.99802217 0 0 Z " fill="#010101" transform="translate(144,474)"/>
<path d="M0 0 C3.52087159 1.82814486 5.59875672 3.75717849 8.25 6.6875 C9.19875 7.5125 10.1475 8.3375 11.125 9.1875 C13.25 11.6875 13.25 11.6875 13.3125 14.375 C11.97849399 17.27842485 11.10875049 17.37402005 8.25 18.6875 C7.25051946 19.73091375 6.27303945 20.79563093 5.3125 21.875 C3.77734375 23.48828125 3.77734375 23.48828125 2.25 24.6875 C-0.625 24.5625 -0.625 24.5625 -2.75 23.6875 C-3.245 22.2025 -3.245 22.2025 -3.75 20.6875 C-4.41 20.6875 -5.07 20.6875 -5.75 20.6875 C-5.75 20.0275 -5.75 19.3675 -5.75 18.6875 C-13.84787635 15.3934486 -22.14465261 13.86162947 -30.6640625 16.63671875 C-37.96441476 20.05001029 -41.47368341 24.35479144 -44.75 31.6875 C-47.26078341 40.30088197 -45.41175772 47.67260373 -41.75 55.6875 C-38.66474084 61.14603544 -33.56246692 63.74203782 -27.75 65.6875 C-18.75083045 67.04498201 -11.82298753 65.17146129 -4.41796875 60.0859375 C-2.49010476 58.66114134 -0.60577519 57.20448244 1.25 55.6875 C2.04664063 56.50154297 2.04664063 56.50154297 2.859375 57.33203125 C3.56578125 58.04746094 4.2721875 58.76289062 5 59.5 C5.69609375 60.20769531 6.3921875 60.91539062 7.109375 61.64453125 C9.06428645 63.51025879 11.05338553 65.11919642 13.25 66.6875 C11.92523114 69.53795053 10.45157918 71.89985634 8.4375 74.3125 C7.71626953 75.19808594 7.71626953 75.19808594 6.98046875 76.1015625 C4.86276709 78.04239066 2.9573133 78.74773837 0.25 79.6875 C-0.6471875 80.02910156 -1.544375 80.37070312 -2.46875 80.72265625 C-3.3865625 81.06167969 -4.304375 81.40070313 -5.25 81.75 C-6.1678125 82.09160156 -7.085625 82.43320312 -8.03125 82.78515625 C-20.69253825 86.98739416 -34.97345139 84.30481959 -46.75 78.4375 C-47.74 77.86 -48.73 77.2825 -49.75 76.6875 C-49.75 76.0275 -49.75 75.3675 -49.75 74.6875 C-51.235 74.1925 -51.235 74.1925 -52.75 73.6875 C-56.70303499 70.20627887 -59.43205381 66.36566612 -62 61.8125 C-62.350625 61.22597656 -62.70125 60.63945313 -63.0625 60.03515625 C-67.09154223 52.98433236 -66.91170932 45.87414829 -66.875 38 C-66.87886719 37.15888672 -66.88273437 36.31777344 -66.88671875 35.45117188 C-66.88542969 34.63841797 -66.88414062 33.82566406 -66.8828125 32.98828125 C-66.88168457 32.25778564 -66.88055664 31.52729004 -66.87939453 30.7746582 C-66.74682207 28.63623934 -66.33427103 26.74463301 -65.75 24.6875 C-65.09 24.6875 -64.43 24.6875 -63.75 24.6875 C-63.481875 23.96175781 -63.21375 23.23601562 -62.9375 22.48828125 C-61.76329619 19.71885976 -60.4105676 17.37830566 -58.75 14.875 C-58.234375 14.08480469 -57.71875 13.29460937 -57.1875 12.48046875 C-56.713125 11.88878906 -56.23875 11.29710937 -55.75 10.6875 C-55.09 10.6875 -54.43 10.6875 -53.75 10.6875 C-53.42 9.6975 -53.09 8.7075 -52.75 7.6875 C-51.19140625 6.30078125 -51.19140625 6.30078125 -49.3125 5 C-48.69503906 4.56300781 -48.07757813 4.12601562 -47.44140625 3.67578125 C-45.75 2.6875 -45.75 2.6875 -43.75 2.6875 C-43.42 1.6975 -43.09 0.7075 -42.75 -0.3125 C-41.71939453 -0.51166016 -41.71939453 -0.51166016 -40.66796875 -0.71484375 C-39.31638672 -0.97974609 -39.31638672 -0.97974609 -37.9375 -1.25 C-37.04417969 -1.42402344 -36.15085937 -1.59804688 -35.23046875 -1.77734375 C-23.16134694 -4.38123302 -11.74768975 -4.11169141 0 0 Z " fill="#010001" transform="translate(438.75,476.3125)"/>
<path d="M0 0 C0.804375 -0.00128906 1.60875 -0.00257813 2.4375 -0.00390625 C3.283125 -0.00003906 4.12875 0.00382812 5 0.0078125 C6.2684375 0.00201172 6.2684375 0.00201172 7.5625 -0.00390625 C8.366875 -0.00261719 9.17125 -0.00132812 10 0 C10.7425 0.00112793 11.485 0.00225586 12.25 0.00341797 C14 0.1328125 14 0.1328125 15 1.1328125 C15.09511266 3.78019339 15.12555635 6.40140251 15.11352539 9.04907227 C15.11367142 9.87827179 15.11381744 10.70747131 15.1139679 11.5617981 C15.11326851 14.31596448 15.10547493 17.07006411 15.09765625 19.82421875 C15.09579216 21.72851016 15.09436822 23.63280205 15.09336853 25.53709412 C15.08954263 30.55949213 15.07971173 35.58186142 15.06866455 40.60424805 C15.05845198 45.7250937 15.05387124 50.84594398 15.04882812 55.96679688 C15.03808953 66.02214807 15.02101224 76.0774779 15 86.1328125 C11.85418577 86.16169764 8.70840531 86.17957173 5.5625 86.1953125 C4.66466797 86.20369141 3.76683594 86.21207031 2.84179688 86.22070312 C1.56079102 86.22553711 1.56079102 86.22553711 0.25390625 86.23046875 C-0.53685303 86.23570557 -1.3276123 86.24094238 -2.14233398 86.24633789 C-4 86.1328125 -4 86.1328125 -5 85.1328125 C-5.10041457 82.52130962 -5.13617057 79.93622885 -5.12939453 77.32421875 C-5.13114685 76.50637909 -5.13289917 75.68853943 -5.13470459 74.84591675 C-5.13912385 72.1290274 -5.13618486 69.41220257 -5.1328125 66.6953125 C-5.13348552 64.81583646 -5.13445553 62.93636051 -5.13571167 61.05688477 C-5.13718874 57.11245904 -5.13503379 53.16805592 -5.13037109 49.22363281 C-5.1246738 44.15568747 -5.12795276 39.08779508 -5.13394356 34.01985168 C-5.13754892 30.13724363 -5.1364107 26.25464822 -5.13381577 22.37203979 C-5.13314643 20.50283807 -5.13397516 18.63363522 -5.13629532 16.76443481 C-5.13882143 14.15672746 -5.13498184 11.54910709 -5.12939453 8.94140625 C-5.13141876 8.16111053 -5.13344299 7.38081482 -5.13552856 6.57687378 C-5.10931764 0.00776155 -5.10931764 0.00776155 0 0 Z " fill="#010101" transform="translate(233,473.8671875)"/>
<path d="M0 0 C3.45569422 5.18354133 4.44307358 11.01932322 3.52734375 17.1796875 C2.78722645 20.1624718 1.94081694 23.07491459 1 26 C0.67 27.175625 0.34 28.35125 0 29.5625 C-2.1169692 34.72261242 -6.28890143 36.42222908 -11 39 C-9.73136178 43.32627001 -8.12782375 46.62136139 -5.5234375 50.29296875 C-4.853125 51.25267578 -4.1828125 52.21238281 -3.4921875 53.20117188 C-2.79351563 54.18666016 -2.09484375 55.17214844 -1.375 56.1875 C0.01938194 58.15566502 1.40772375 60.12812766 2.7890625 62.10546875 C3.40475098 62.97324951 4.02043945 63.84103027 4.65478516 64.73510742 C6 67 6 67 6 70 C5.34 70 4.68 70 4 70 C3.67 68.35 3.34 66.7 3 65 C2.34 65 1.68 65 1 65 C-2.16870152 62.32640809 -3.69386058 59.91841827 -5 56 C-5.66 56 -6.32 56 -7 56 C-7.28875 55.21625 -7.5775 54.4325 -7.875 53.625 C-8.84912254 50.90328368 -8.84912254 50.90328368 -11 49 C-11.71927295 46.68234271 -12.3909893 44.34904126 -13 42 C-13.99 42 -14.98 42 -16 42 C-16 40.68 -16 39.36 -16 38 C-14.68 38 -13.36 38 -12 38 C-12 37.34 -12 36.68 -12 36 C-10.68 35.34 -9.36 34.68 -8 34 C-8 33.01 -8 32.02 -8 31 C-7.01 31 -6.02 31 -5 31 C-3.23537317 27.91190305 -3 26.76687864 -3 23 C-2.01 23 -1.02 23 0 23 C0.82481968 19.39959663 1.13516938 16.06648597 1.125 12.375 C1.12757813 11.43398438 1.13015625 10.49296875 1.1328125 9.5234375 C1.10547998 6.87322493 1.10547998 6.87322493 0 4 C0 2.68 0 1.36 0 0 Z " fill="#58AF5E" transform="translate(532,490)"/>
<path d="M0 0 C0.99 0 1.98 0 3 0 C3.28875 0.94875 3.5775 1.8975 3.875 2.875 C4.76825109 6.05211578 4.76825109 6.05211578 7 8 C7.625 10.125 7.625 10.125 8 12 C7.01 12.66 6.02 13.32 5 14 C5 12.68 5 11.36 5 10 C4.01 10 3.02 10 2 10 C1.67 8.68 1.34 7.36 1 6 C-6.91917931 15.32348458 -6.91917931 15.32348458 -12 26.3125 C-13 29 -13 29 -15 30.125 C-15.66 30.41375 -16.32 30.7025 -17 31 C-18.26804566 33.0335948 -18.26804566 33.0335948 -19 35 C-19.66 35 -20.32 35 -21 35 C-20.24849977 38.27773504 -20.24849977 38.27773504 -17 40 C-19.64 40.33 -22.28 40.66 -25 41 C-23.66384186 37.37881779 -22.04328117 34.29335574 -19.9375 31.0625 C-19.31746094 30.10472656 -18.69742188 29.14695312 -18.05859375 28.16015625 C-17.37925781 27.11730469 -16.69992187 26.07445312 -16 25 C-14.88027928 23.26315763 -13.76332088 21.5245688 -12.6472168 19.78540039 C-11.88369475 18.59713975 -11.11823701 17.41012063 -10.35083008 16.22436523 C-8.51979127 13.39172585 -6.72616018 10.54853435 -4.9765625 7.6640625 C-4.36554687 6.66117187 -3.75453125 5.65828125 -3.125 4.625 C-2.59132813 3.73039062 -2.05765625 2.83578125 -1.5078125 1.9140625 C-0.76144531 0.96660156 -0.76144531 0.96660156 0 0 Z " fill="#52B15E" transform="translate(788,474)"/>
<path d="M0 0 C22.44 0 44.88 0 68 0 C68.495 0.99 68.495 0.99 69 2 C68.34 2.99 67.68 3.98 67 5 C67 4.01 67 3.02 67 2 C66.19328857 2.16749756 65.38657715 2.33499512 64.55541992 2.50756836 C60.34523466 3.0906861 56.35121404 3.02101147 52.11328125 2.87890625 C51.25679489 2.85529526 50.40030853 2.83168427 49.51786804 2.80735779 C46.78255595 2.73120762 44.04755415 2.64737349 41.3125 2.5625 C37.74618941 2.45607676 34.17979309 2.3533538 30.61328125 2.25390625 C29.30123215 2.2170018 29.30123215 2.2170018 27.962677 2.17935181 C18.97474144 1.94346783 9.99028002 1.94781708 1 2 C1 6.95 1 11.9 1 17 C0.67 17 0.34 17 0 17 C0 11.39 0 5.78 0 0 Z " fill="#0C0609" transform="translate(144,474)"/>
<path d="M0 0 C5.22383198 4.68343557 7.62617653 9.96399954 8.1418457 16.91088867 C8.76830022 30.73570904 7.12317798 41.99852067 -2 53 C-4.5507449 55.49088988 -7.20225346 57.79162646 -10 60 C-10.66 59.67 -11.32 59.34 -12 59 C-11.34 57.68 -10.68 56.36 -10 55 C-9.01 55.33 -8.02 55.66 -7 56 C-6.67 54.68 -6.34 53.36 -6 52 C-5.01 52 -4.02 52 -3 52 C-2.566875 51.12021484 -2.566875 51.12021484 -2.125 50.22265625 C-1.44628725 48.88172724 -0.74439975 47.55170112 0 46.24609375 C3.05988834 40.71199882 5 34.39323483 5 28 C5.02320313 26.99195313 5.04640625 25.98390625 5.0703125 24.9453125 C5.08835937 23.68460938 5.10640625 22.42390625 5.125 21.125 C5.14820313 19.86945312 5.17140625 18.61390625 5.1953125 17.3203125 C5.27220607 13.86135219 5.27220607 13.86135219 3 11 C0.43383368 7.15075052 0.44902324 4.5650696 0 0 Z " fill="#59AA63" transform="translate(628,493)"/>
<path d="M0 0 C6.6 0 13.2 0 20 0 C19.52480831 2.40990072 19.04744423 4.81939532 18.55859375 7.2265625 C18.22450873 8.88530633 17.90059874 10.54622439 17.59765625 12.2109375 C16.25024052 19.11483902 13.63343776 25.49681592 11 32 C10.67 32 10.34 32 10 32 C9.67 30.02 9.34 28.04 9 26 C9.66 26 10.32 26 11 26 C11.1340625 25.43539063 11.268125 24.87078125 11.40625 24.2890625 C12.01399807 21.94603375 12.73232476 19.67034898 13.5 17.375 C13.88671875 16.21097656 13.88671875 16.21097656 14.28125 15.0234375 C15 13 15 13 16 11 C15.34 11 14.68 11 14 11 C14.33 10.05125 14.66 9.1025 15 8.125 C16.10159191 5.22937548 16.10159191 5.22937548 16 3 C16.66 3 17.32 3 18 3 C18 2.34 18 1.68 18 1 C13.52116304 1.44703986 13.52116304 1.44703986 10 4 C10 3.01 10 2.02 10 1 C7.03 1 4.06 1 1 1 C1.33 1.99 1.66 2.98 2 4 C0.68 4.99 -0.64 5.98 -2 7 C-1.34 4.69 -0.68 2.38 0 0 Z " fill="#5AA860" transform="translate(747,474)"/>
<path d="M0 0 C1.75570312 0.02707031 1.75570312 0.02707031 3.546875 0.0546875 C4.88492188 0.08949219 4.88492188 0.08949219 6.25 0.125 C6.58 1.445 6.91 2.765 7.25 4.125 C6.26 4.125 5.27 4.125 4.25 4.125 C4.41226074 4.66398926 4.57452148 5.20297852 4.74169922 5.75830078 C5.34277575 8.55697316 5.37967754 11.12907186 5.3828125 13.9921875 C5.38474609 15.69181641 5.38474609 15.69181641 5.38671875 17.42578125 C5.38285156 18.60527344 5.37898437 19.78476562 5.375 21 C5.38080078 22.75763672 5.38080078 22.75763672 5.38671875 24.55078125 C5.38542969 25.68644531 5.38414062 26.82210937 5.3828125 27.9921875 C5.38168457 29.02456543 5.38055664 30.05694336 5.37939453 31.12060547 C5.24702693 34.19403123 4.81763758 37.10417598 4.25 40.125 C3.92 40.125 3.59 40.125 3.25 40.125 C3.25 27.255 3.25 14.385 3.25 1.125 C-1.37 1.455 -5.99 1.785 -10.75 2.125 C-6.52746115 0.01373057 -4.60998477 -0.0921997 0 0 Z " fill="#57A964" transform="translate(775.75,514.875)"/>
<path d="M0 0 C4.95105172 1.65035057 6.8430982 5.8578657 9.2109375 10.2421875 C13.12852185 19.16094337 12.3554989 28.47065449 12 38 C11.67 38 11.34 38 11 38 C10.95101562 36.92878906 10.90203125 35.85757813 10.8515625 34.75390625 C10.77654706 33.35674361 10.7009987 31.9596095 10.625 30.5625 C10.5940625 29.85544922 10.563125 29.14839844 10.53125 28.41992188 C10.42719371 26.60760812 10.22080108 24.80182012 10 23 C9.34 22.67 8.68 22.34 8 22 C8 18.7 8 15.4 8 12 C7.34 12 6.68 12 6 12 C6 10.68 6 9.36 6 8 C5.34 8 4.68 8 4 8 C4 7.34 4 6.68 4 6 C2.35 6.66 0.7 7.32 -1 8 C-0.67 5.36 -0.34 2.72 0 0 Z " fill="#54A75B" transform="translate(849,488)"/>
<path d="M0 0 C1.60580515 4.01451287 0.29740222 6.74821242 -1.125 10.6875 C-3.4557381 17.26695368 -5.46978618 23.89142242 -7.29931641 30.62768555 C-7.80907007 32.43555256 -8.39777618 34.22079839 -9 36 C-9.99 36.495 -9.99 36.495 -11 37 C-11.99404438 34.01786685 -12.05554146 32.55541462 -11.75 29.5 C-11.68296875 28.7265625 -11.6159375 27.953125 -11.546875 27.15625 C-10.89478597 24.5851561 -9.90804503 23.7830849 -8 22 C-5.39932123 16.78708389 -3 9.8231687 -3 4 C-2.34 4 -1.68 4 -1 4 C-0.67 2.68 -0.34 1.36 0 0 Z " fill="#59A861" transform="translate(756,506)"/>
<path d="M0 0 C0.33 0.66 0.66 1.32 1 2 C1.99 1.67 2.98 1.34 4 1 C4.13277344 1.83144531 4.26554688 2.66289063 4.40234375 3.51953125 C4.57894531 4.60621094 4.75554688 5.69289063 4.9375 6.8125 C5.19853516 8.43091797 5.19853516 8.43091797 5.46484375 10.08203125 C5.93871921 13.04933356 5.93871921 13.04933356 7 16 C7.66 16 8.32 16 9 16 C8.979375 17.175625 8.95875 18.35125 8.9375 19.5625 C8.93052739 23.47413467 9.35749657 27.14497944 10 31 C6.94290905 26.41436357 5.59998535 21.2709805 3.875 16.0625 C3.50246094 14.96486328 3.12992188 13.86722656 2.74609375 12.73632812 C2.39417969 11.67994141 2.04226563 10.62355469 1.6796875 9.53515625 C1.35726074 8.569729 1.03483398 7.60430176 0.70263672 6.60961914 C0 4 0 4 0 0 Z " fill="#59AB61" transform="translate(651,511)"/>
<path d="M0 0 C5.34975195 5.34975195 7.24659096 16.58409138 8 24 C7.67 24.66 7.34 25.32 7 26 C5.68 26 4.36 26 3 26 C1.74817807 22.24453422 1.6798191 18.60689031 1.5 14.6875 C1.26829468 9.71441733 0.9355643 4.90391623 0 0 Z " fill="#59AD60" transform="translate(718,494)"/>
<path d="M0 0 C6.93 0 13.86 0 21 0 C25.95535714 14.59821429 25.95535714 14.59821429 27.875 21.1875 C28.24238281 22.44626953 28.24238281 22.44626953 28.6171875 23.73046875 C29.02814106 26.16683628 28.77957791 27.67728498 28 30 C28 29.34 28 28.68 28 28 C27.34 28 26.68 28 26 28 C25.87882813 27.14535156 25.75765625 26.29070312 25.6328125 25.41015625 C25.46523438 24.30542969 25.29765625 23.20070313 25.125 22.0625 C24.96257813 20.96035156 24.80015625 19.85820312 24.6328125 18.72265625 C24.42398438 17.82417969 24.21515625 16.92570312 24 16 C23.34 15.67 22.68 15.34 22 15 C21.58244638 12.68025766 21.2644354 10.34214207 21 8 C20.67 5.69 20.34 3.38 20 1 C13.73 1 7.46 1 1 1 C0.67 1.99 0.34 2.98 0 4 C0 2.68 0 1.36 0 0 Z " fill="#58A661" transform="translate(639,474)"/>
<path d="M0 0 C9.52740362 1.24949556 16.8912235 6.1333902 23.1875 13.375 C25 16 25 16 25 18 C24.34 18 23.68 18 23 18 C23.33 18.99 23.66 19.98 24 21 C23.01 21.66 22.02 22.32 21 23 C21.03480469 22.37351562 21.06960938 21.74703125 21.10546875 21.1015625 C21.13253906 20.28429687 21.15960937 19.46703125 21.1875 18.625 C21.22230469 17.81289063 21.25710938 17.00078125 21.29296875 16.1640625 C21.19628906 15.44992187 21.09960938 14.73578125 21 14 C20.01 13.34 19.02 12.68 18 12 C18 11.34 18 10.68 18 10 C17.34 10 16.68 10 16 10 C16 10.99 16 11.98 16 13 C15.01 12.67 14.02 12.34 13 12 C13 10.02 13 8.04 13 6 C12.01 6 11.02 6 10 6 C10 5.34 10 4.68 10 4 C9.278125 3.87625 8.55625 3.7525 7.8125 3.625 C5.04278106 3.0095069 2.6029646 2.11555626 0 1 C0 0.67 0 0.34 0 0 Z " fill="#53AD59" transform="translate(603,475)"/>
<path d="M0 0 C26.91488474 -0.68985312 26.91488474 -0.68985312 39 3 C39.495 3.99 39.495 3.99 40 5 C37.8125 5.6875 37.8125 5.6875 35 6 C33.32936253 5.00664799 31.66324401 4.00568242 30 3 C27.32348727 2.45570916 24.72966904 2.23132789 22 2 C21.67 2.66 21.34 3.32 21 4 C21 3.34 21 2.68 21 2 C20.01 2.33 19.02 2.66 18 3 C18 2.34 18 1.68 18 1 C13.05 1.33 8.1 1.66 3 2 C3.33 3.65 3.66 5.3 4 7 C2 5.1875 2 5.1875 0 3 C0 2.01 0 1.02 0 0 Z " fill="#5AA663" transform="translate(796,474)"/>
<path d="M0 0 C1.01941403 3.68168538 1.32896445 7.27653786 1.62109375 11.07421875 C1.74613281 11.70972656 1.87117187 12.34523438 2 13 C2.66 13.33 3.32 13.66 4 14 C3.67 17.63 3.34 21.26 3 25 C2.67 25 2.34 25 2 25 C1.90203125 24.39414062 1.8040625 23.78828125 1.703125 23.1640625 C0.28768989 15.23274509 -2.33756217 8.16137397 -6 1 C-5.38125 1.20625 -4.7625 1.4125 -4.125 1.625 C-3.073125 1.810625 -3.073125 1.810625 -2 2 C-1.34 1.34 -0.68 0.68 0 0 Z " fill="#5CAE5F" transform="translate(839,496)"/>
<path d="M0 0 C-1.59910868 1.00806851 -3.20448262 2.00620385 -4.8125 3 C-5.70582031 3.556875 -6.59914063 4.11375 -7.51953125 4.6875 C-10 6 -10 6 -13 6 C-13.33 6.99 -13.66 7.98 -14 9 C-17.68987155 13.01544845 -21.82819346 16.5014533 -26 20 C-23.29288244 11.06651206 -15.6877976 5.61755196 -8 1 C-3.49939024 -1.16646341 -3.49939024 -1.16646341 0 0 Z " fill="#56AE60" transform="translate(577,476)"/>
<path d="M0 0 C9.9 0 19.8 0 30 0 C30 0.66 30 1.32 30 2 C26.64047644 3.11984119 24.33089543 3.028066 20.80078125 2.87890625 C19.59228516 2.83056641 18.38378906 2.78222656 17.13867188 2.73242188 C15.87603516 2.67634766 14.61339844 2.62027344 13.3125 2.5625 C12.03826172 2.51029297 10.76402344 2.45808594 9.45117188 2.40429688 C6.30053961 2.27449555 3.15021423 2.1395244 0 2 C0 1.34 0 0.68 0 0 Z " fill="#0B0409" transform="translate(157,490)"/>
<path d="M0 0 C0.33 0 0.66 0 1 0 C0.95875 1.010625 0.9175 2.02125 0.875 3.0625 C1.00177732 7.05598561 1.83093288 10.20053187 3 14 C3 14.99 3 15.98 3 17 C3.94978897 19.15028304 3.94978897 19.15028304 5 21 C0.76069809 17.23173163 -1.99834049 13.34521366 -4 8 C-4 7.01 -4 6.02 -4 5 C-3.34 5 -2.68 5 -2 5 C-1.34 3.35 -0.68 1.7 0 0 Z " fill="#57AB5F" transform="translate(551,524)"/>
<path d="M0 0 C0.99 0.33 1.98 0.66 3 1 C2.67 4.96 2.34 8.92 2 13 C1.34 13 0.68 13 0 13 C-0.12117187 13.63808594 -0.24234375 14.27617188 -0.3671875 14.93359375 C-0.53476562 15.75988281 -0.70234375 16.58617187 -0.875 17.4375 C-1.03742187 18.26121094 -1.19984375 19.08492187 -1.3671875 19.93359375 C-1.57601562 20.61550781 -1.78484375 21.29742188 -2 22 C-2.66 22.33 -3.32 22.66 -4 23 C-4 21.35 -4 19.7 -4 18 C-3.34 18 -2.68 18 -2 18 C-2 17.34 -2 16.68 -2 16 C-2.66 15.67 -3.32 15.34 -4 15 C-3.525625 14.01 -3.05125 13.02 -2.5625 12 C-0.83186252 8.00810505 -0.37884686 4.31885418 0 0 Z M0 5 C1 8 1 8 1 8 Z " fill="#58AD63" transform="translate(689,537)"/>
<path d="M0 0 C2.46477712 2.30193899 4.31755197 4.75988654 6.1875 7.5625 C6.71730469 8.34753906 7.24710938 9.13257813 7.79296875 9.94140625 C9 12 9 12 9 14 C5.37 14 1.74 14 -2 14 C-0.77065985 10.31197956 0.93859378 9.27643027 4 7 C3.34 7 2.68 7 2 7 C1.34 4.69 0.68 2.38 0 0 Z " fill="#56AE66" transform="translate(807,502)"/>
<path d="M0 0 C1.8922536 5.67676081 2.74166093 12.19446358 1 18 C-1.00993705 14.98509443 -1.72623341 12.7850073 -2.625 9.3125 C-2.88539063 8.31863281 -3.14578125 7.32476563 -3.4140625 6.30078125 C-3.60742188 5.54152344 -3.80078125 4.78226563 -4 4 C-2.68 2.68 -1.36 1.36 0 0 Z " fill="#5AAF5F" transform="translate(711,513)"/>
<path d="M0 0 C2.40450178 2.40450178 2.29609139 3.08233942 2.3125 6.375 C2.23215354 10.23781044 1.74084392 12.15373901 -1 15 C-1.69105972 16.32085528 -2.36124971 17.65307005 -3 19 C-3.33693273 12.03672362 -2.3030887 6.56654456 0 0 Z " fill="#58B360" transform="translate(686,499)"/>
<path d="M0 0 C5.82855229 5.2255986 7.35034714 10.46402678 8 18 C7.01 18.33 6.02 18.66 5 19 C5.04125 18.236875 5.0825 17.47375 5.125 16.6875 C5.22080824 13.77281584 5.22080824 13.77281584 3 11 C0.43383368 7.15075052 0.44902324 4.5650696 0 0 Z " fill="#4FA758" transform="translate(628,493)"/>
<path d="M0 0 C0.99 0.33 1.98 0.66 3 1 C2.28849593 4.69982119 0.9580784 7.78315692 -1 11 C-3.6875 12.375 -3.6875 12.375 -6 13 C-6 10 -6 10 -5 8 C-4.34 8 -3.68 8 -3 8 C-2.690625 7.05125 -2.38125 6.1025 -2.0625 5.125 C-1 2 -1 2 0 0 Z " fill="#57B160" transform="translate(839,525)"/>
<path d="M0 0 C6.27 0 12.54 0 19 0 C18.67 0.99 18.34 1.98 18 3 C17.67 2.67 17.34 2.34 17 2 C14.47403741 1.76346477 11.96892793 1.57826308 9.4375 1.4375 C8.72658203 1.39431641 8.01566406 1.35113281 7.28320312 1.30664062 C5.52238088 1.20028223 3.7612168 1.09961154 2 1 C1.80083984 1.87398438 1.80083984 1.87398438 1.59765625 2.765625 C0.72992502 6.00969209 -0.64226686 8.93034247 -2 12 C-3 9 -3 9 0 0 Z " fill="#56A861" transform="translate(694,474)"/>
<path d="M0 0 C2.3125 -0.3125 2.3125 -0.3125 5 0 C6.01866229 1.65532623 7.01810813 3.32260138 8 5 C10.59122743 5.88658466 10.59122743 5.88658466 13 6 C13.33 7.32 13.66 8.64 14 10 C8.48364034 8.62091009 4.13041773 5.8578521 0 2 C0 1.34 0 0.68 0 0 Z " fill="#57AD60" transform="translate(558,547)"/>
<path d="M0 0 C0.144375 0.61875 0.28875 1.2375 0.4375 1.875 C0.93152225 4.03258322 0.93152225 4.03258322 2 6 C1.66015625 7.9453125 1.66015625 7.9453125 1.0625 10.125 C0.86785156 10.84945313 0.67320312 11.57390625 0.47265625 12.3203125 C0.23869141 13.15175781 0.23869141 13.15175781 0 14 C-0.66 14 -1.32 14 -2 14 C-2.66 15.32 -3.32 16.64 -4 18 C-3.41632611 11.69632197 -1.95928381 6.01339937 0 0 Z " fill="#58AD5F" transform="translate(743,485)"/>
<path d="M0 0 C0.99 0.495 0.99 0.495 2 1 C2.66666667 3 3.33333333 5 4 7 C4.66 7.33 5.32 7.66 6 8 C5.979375 8.763125 5.95875 9.52625 5.9375 10.3125 C5.87057159 13.10185786 5.87057159 13.10185786 7 16 C8.98 16 10.96 16 13 16 C13 16.33 13 16.66 13 17 C9.625 17.125 9.625 17.125 6 17 C3.38832897 14.38832897 2.92868518 12.0278941 1.875 8.5 C1.52179687 7.3346875 1.16859375 6.169375 0.8046875 4.96875 C0 2 0 2 0 0 Z " fill="#58AB64" transform="translate(661,543)"/>
<path d="M0 0 C0.99 0 1.98 0 3 0 C5.44897847 3.67346771 5.31537716 5.66356399 5 10 C4.34 10.66 3.68 11.32 3 12 C2.49166409 10.75336669 1.99368855 9.50250613 1.5 8.25 C1.2215625 7.55390625 0.943125 6.8578125 0.65625 6.140625 C0 4 0 4 0 0 Z " fill="#56AD5E" transform="translate(643,487)"/>
<path d="M0 0 C0.99 0 1.98 0 3 0 C4.00496852 3.01490557 4.10335303 5.04181692 4.0625 8.1875 C4.05347656 9.08855469 4.04445313 9.98960937 4.03515625 10.91796875 C4.02355469 11.60503906 4.01195312 12.29210937 4 13 C3.34 12.67 2.68 12.34 2 12 C0.73238238 7.70418473 0 4.49055702 0 0 Z " fill="#54AA5F" transform="translate(716,543)"/>
<path d="M0 0 C0.92232422 0.63228516 0.92232422 0.63228516 1.86328125 1.27734375 C3.07564453 2.09912109 3.07564453 2.09912109 4.3125 2.9375 C5.11300781 3.48277344 5.91351562 4.02804687 6.73828125 4.58984375 C9.0258143 6.13837326 9.0258143 6.13837326 12 7 C12 7.66 12 8.32 12 9 C8.46400002 8.92928 5.8958137 8.80836985 3.19921875 6.375 C1.72324972 4.62779084 0.32733004 2.86215167 -1 1 C-0.67 0.67 -0.34 0.34 0 0 Z " fill="#56AD5F" transform="translate(570,533)"/>
<path d="M0 0 C0.66 0 1.32 0 2 0 C1.67 1.65 1.34 3.3 1 5 C1.99 5.33 2.98 5.66 4 6 C4.33 6.66 4.66 7.32 5 8 C2.69 8 0.38 8 -2 8 C-2 6.68 -2 5.36 -2 4 C-1.34 4 -0.68 4 0 4 C0 2.68 0 1.36 0 0 Z " fill="#54AB5F" transform="translate(782,552)"/>
<path d="M0 0 C2.34914492 2.34914492 2.73140357 3.95679446 3.625 7.125 C3.88539063 8.03507813 4.14578125 8.94515625 4.4140625 9.8828125 C4.70410156 10.93082031 4.70410156 10.93082031 5 12 C3.68 11.67 2.36 11.34 1 11 C0.67 7.37 0.34 3.74 0 0 Z " fill="#59A960" transform="translate(668,505)"/>
<path d="M0 0 C1.32 0.66 2.64 1.32 4 2 C2.625 4.5 2.625 4.5 1 7 C0.34 7 -0.32 7 -1 7 C-1.04254356 5.00045254 -1.04080783 2.99958364 -1 1 C-0.67 0.67 -0.34 0.34 0 0 Z " fill="#59A960" transform="translate(569,496)"/>
<path d="M0 0 C0.99 0.33 1.98 0.66 3 1 C3.33 2.65 3.66 4.3 4 6 C2.35 6.66 0.7 7.32 -1 8 C-0.67 5.36 -0.34 2.72 0 0 Z " fill="#56B15B" transform="translate(849,488)"/>
<path d="M0 0 C0.66 0.33 1.32 0.66 2 1 C1.33989524 3.84550012 0.48275034 6.52325999 -0.5625 9.25 C-0.83191406 9.95640625 -1.10132813 10.6628125 -1.37890625 11.390625 C-1.68634766 12.18726563 -1.68634766 12.18726563 -2 13 C-3.18771723 9.57056481 -2.80226223 7.62215325 -1.5625 4.25 C-1.27503906 3.45078125 -0.98757813 2.6515625 -0.69140625 1.828125 C-0.46324219 1.22484375 -0.23507812 0.6215625 0 0 Z " fill="#5AAD62" transform="translate(690,486)"/>
<path d="M0 0 C4.21422242 2.88341534 5.76075855 5.04303419 7 10 C6.34 10 5.68 10 5 10 C3.7109375 8.3203125 3.7109375 8.3203125 2.375 6.125 C1.92898438 5.40570313 1.48296875 4.68640625 1.0234375 3.9453125 C0 2 0 2 0 0 Z " fill="#51AA5F" transform="translate(800,492)"/>
<path d="M0 0 C5.78461538 4.43076923 5.78461538 4.43076923 6.875 7.3125 C6.936875 8.1478125 6.936875 8.1478125 7 9 C6.34 8.67 5.68 8.34 5 8 C5 7.34 5 6.68 5 6 C4.01 5.67 3.02 5.34 2 5 C0.8125 2.4375 0.8125 2.4375 0 0 Z " fill="#55A95A" transform="translate(525,481)"/>
<path d="M0 0 C0.99 0.495 0.99 0.495 2 1 C1.67 1.66 1.34 2.32 1 3 C0.67 2.01 0.34 1.02 0 0 Z " fill="#5CAA68" transform="translate(797,482)"/>
<path d="M0 0 C2 1 2 1 2 1 Z " fill="#58A966" transform="translate(800,488)"/>
<path d="" fill="#56A564" transform="translate(0,0)"/>
<path d="" fill="#52A25C" transform="translate(0,0)"/>
<path d="" fill="#000000" transform="translate(0,0)"/>
<path d="" fill="#000903" transform="translate(0,0)"/>
<path d="" fill="#040002" transform="translate(0,0)"/>
<path d="" fill="#5DA668" transform="translate(0,0)"/>
<path d="" fill="#0A0002" transform="translate(0,0)"/>
<path d="" fill="#080005" transform="translate(0,0)"/>
<path d="" fill="#060006" transform="translate(0,0)"/>
<path d="" fill="#050004" transform="translate(0,0)"/>
<path d="" fill="#090B06" transform="translate(0,0)"/>
<path d="" fill="#030003" transform="translate(0,0)"/>
<path d="" fill="#040002" transform="translate(0,0)"/>
</svg>
